<svg xmlns="http://www.w3.org/2000/svg" width="800" height="799.995" viewBox="0 0 800 799.995"><path d="M512,122c-225.33,0-400,165.06-400,388,0,116.61,47.79,217.38,125.62,286.98a31.98,31.98,0,0,1,10.75,22.81l2.18,71.15a32,32,0,0,0,44.91,28.3l79.39-35.05a31.92,31.92,0,0,1,21.36-1.57A435.948,435.948,0,0,0,512,898c225.33,0,400-165.06,400-388S737.33,122,512,122ZM752.2,420.53,634.7,606.95a60.008,60.008,0,0,1-86.76,16.01l-93.46-70.09a24,24,0,0,0-28.91.08L299.36,648.74c-16.85,12.78-38.84-7.38-27.56-25.27L389.3,437.05a60,60,0,0,1,86.76-16.01l93.45,70.09a24,24,0,0,0,28.91-.08l126.21-95.79C741.48,382.48,763.47,402.64,752.2,420.53Z" transform="translate(-112 -122)" fill="#fff" fill-rule="evenodd"/></svg>