<?xml version="1.0" encoding="utf-8"?>
<!-- Generator: Adobe Illustrator 24.0.1, SVG Export Plug-In . SVG Version: 6.00 Build 0)  -->
<svg version="1.1" id="Layer_1" xmlns="http://www.w3.org/2000/svg" xmlns:xlink="http://www.w3.org/1999/xlink" x="0px" y="0px"
	 viewBox="0 0 893.33 265.48" style="enable-background:new 0 0 893.33 265.48;" xml:space="preserve">
<style type="text/css">
	.st0{fill:#FFFFFF;}
</style>
<g>
	<g>
		<g>
			<path class="st0" d="M208.36,58.25c0.29,0.99,0.56,1.98,0.8,2.98C208.92,60.23,208.65,59.24,208.36,58.25z"/>
			<path class="st0" d="M206.96,53.91c0.43,1.2,0.84,2.41,1.21,3.63C207.8,56.32,207.39,55.11,206.96,53.91z"/>
			<path class="st0" d="M210.23,66.39c0.14,0.8,0.26,1.6,0.37,2.41C210.48,68,210.36,67.19,210.23,66.39z"/>
			<path class="st0" d="M209.46,62.52c0.18,0.82,0.36,1.64,0.52,2.46C209.82,64.15,209.64,63.34,209.46,62.52z"/>
			<path class="st0" d="M202.05,43.23c0.42,0.74,0.82,1.48,1.21,2.23C202.87,44.71,202.46,43.97,202.05,43.23z"/>
			<path class="st0" d="M205.54,50.33c0.37,0.86,0.71,1.73,1.04,2.6C206.25,52.06,205.91,51.19,205.54,50.33z"/>
			<path class="st0" d="M203.92,46.77c0.37,0.75,0.72,1.51,1.06,2.28C204.64,48.29,204.29,47.53,203.92,46.77z"/>
			<path class="st0" d="M188.62,26.15c0.66,0.62,1.3,1.25,1.93,1.88C189.93,27.4,189.28,26.77,188.62,26.15z"/>
			<path class="st0" d="M180.73,19.62C180.73,19.62,180.73,19.62,180.73,19.62c1.2,0.87,2.35,1.76,3.48,2.67
				C183.08,21.37,181.93,20.48,180.73,19.62z"/>
			<path class="st0" d="M199.83,39.56c0.52,0.81,1.03,1.62,1.52,2.44C200.86,41.18,200.35,40.37,199.83,39.56z"/>
			<path class="st0" d="M210.78,70.21c0.1,0.86,0.18,1.72,0.25,2.59C210.96,71.93,210.88,71.07,210.78,70.21z"/>
			<polygon class="st0" points="180.73,19.62 180.73,19.62 180.73,19.62 			"/>
			<path class="st0" d="M185.25,23.16c0.76,0.63,1.5,1.27,2.22,1.92C186.75,24.43,186.01,23.8,185.25,23.16z"/>
			<path class="st0" d="M211.13,74c0.08,1.26,0.14,2.53,0.17,3.8C211.28,76.53,211.22,75.27,211.13,74z"/>
			<path class="st0" d="M209.8,94.49c-0.53,2.72-1.21,5.42-2.02,8.09C208.59,99.91,209.27,97.21,209.8,94.49z"/>
			<path class="st0" d="M210.44,90.68c-0.18,1.19-0.37,2.38-0.6,3.57C210.07,93.06,210.27,91.87,210.44,90.68z"/>
			<path class="st0" d="M210.91,86.82c-0.09,0.96-0.2,1.91-0.33,2.86C210.71,88.73,210.82,87.77,210.91,86.82z"/>
			<path class="st0" d="M207.75,102.68c-0.39,1.28-0.82,2.56-1.27,3.83C206.93,105.24,207.36,103.96,207.75,102.68z"/>
			<path class="st0" d="M206.39,106.75c-0.46,1.29-0.96,2.56-1.49,3.83C205.43,109.31,205.93,108.03,206.39,106.75z"/>
			<path class="st0" d="M211.2,82.81c-0.04,0.93-0.1,1.86-0.18,2.79C211.1,84.67,211.16,83.74,211.2,82.81z"/>
			<path class="st0" d="M191.66,125l3.82-6.48c1.82-3.08,3.47-6.39,4.9-9.82c4.11-9.86,6.19-20.51,6.01-30.81
				c-0.38-22-10.51-41.28-28.54-54.29l-13.07-9.44c-9.24-2.46-18.84-3.81-28.57-3.9l-58.4-0.53l17.94,31.75
				c7.97,14.11,22.87,22.89,39.08,23.04c0.12,0,0.62,0.01,0.73,0.01c12.12,0.17,24.22,3.38,34.12,10.37
				C187.38,87.37,193.97,106.56,191.66,125z"/>
			<path class="st0" d="M211.3,77.8c0.02,1.29,0,2.58-0.04,3.87C211.3,80.38,211.32,79.09,211.3,77.8z"/>
			<path class="st0" d="M202.04,116.73c-0.26,0.51-0.52,1.01-0.79,1.52C201.53,117.74,201.78,117.23,202.04,116.73z"/>
			<path class="st0" d="M191.64,29.16c0.63,0.66,1.24,1.34,1.83,2.02C192.88,30.5,192.27,29.82,191.64,29.16z"/>
			<path class="st0" d="M199.73,120.95c-0.01,0.02-0.02,0.03-0.03,0.05l-15.24,25.85c0,0,0,0,0,0.01L199.71,121
				C199.72,120.99,199.72,120.97,199.73,120.95z"/>
			<path class="st0" d="M194.4,32.23c0.71,0.84,1.39,1.7,2.06,2.56C195.8,33.93,195.12,33.07,194.4,32.23z"/>
			<path class="st0" d="M204.91,110.58c-0.33,0.8-0.69,1.6-1.04,2.39C204.22,112.18,204.57,111.38,204.91,110.58z"/>
			<path class="st0" d="M196.94,35.39c0.81,1.07,1.57,2.16,2.31,3.26C198.51,37.55,197.74,36.46,196.94,35.39z"/>
			<path class="st0" d="M203.61,113.53c-0.31,0.68-0.64,1.36-0.97,2.04C202.97,114.89,203.29,114.21,203.61,113.53z"/>
		</g>
		<path class="st0" d="M28.65,34.75c-9.41,15.95-9.59,35.1-0.47,51.22l81.2,143.76c9.2,16.26,25.91,26.02,44.63,26.02
			c0.12,0,0.24,0,0.36,0c15.24-0.1,29.24-7.55,39-19.03c0,0.01-0.01,0.01-0.01,0.01c0,0-0.01,0.01-0.01,0.01c0,0,0,0,0,0
			c-3.07,3.37-6.25,5.43-9.39,5.43c-1.12,0-2.23-0.26-3.33-0.82c-1.9-0.96-3.76-2.8-5.56-5.69c0-0.01-0.01-0.01-0.01-0.02
			l-7.23-12.78L93.56,91.44v0L50.28,14.77c0,0,0,0,0,0l0,0C41.45,19.08,33.9,25.85,28.65,34.75z"/>
		<g>
			<path class="st0" d="M187.67,241.26c-0.18,0.09-0.37,0.16-0.55,0.24C187.3,241.43,187.48,241.35,187.67,241.26z"/>
			<path class="st0" d="M186.56,241.71c-0.16,0.06-0.32,0.1-0.48,0.15C186.24,241.82,186.4,241.77,186.56,241.71z"/>
			<path class="st0" d="M185.42,242.02c-0.13,0.03-0.26,0.06-0.39,0.07C185.16,242.07,185.29,242.04,185.42,242.02z"/>
			<path class="st0" d="M181.87,241.85c-0.09-0.03-0.18-0.05-0.27-0.08C181.68,241.8,181.78,241.82,181.87,241.85z"/>
			<path class="st0" d="M189.45,240.22c-0.51,0.35-1.02,0.65-1.54,0.91C188.43,240.87,188.94,240.57,189.45,240.22z"/>
			<path class="st0" d="M190.41,239.52c-0.28,0.22-0.56,0.43-0.83,0.62C189.85,239.95,190.13,239.74,190.41,239.52z"/>
			<path class="st0" d="M190.54,239.41c0.29-0.23,0.58-0.47,0.86-0.73c0,0,0,0,0,0C191.11,238.94,190.83,239.18,190.54,239.41z"/>
			<path class="st0" d="M183.95,242.18c0.01,0,0.01,0,0.02,0c0.01,0,0.02,0,0.03,0c-0.01,0-0.02,0-0.03,0
				C183.96,242.18,183.95,242.18,183.95,242.18z"/>
			<polygon class="st0" points="149.14,189.79 149.14,189.79 149.14,189.78 175.06,235.66 167.84,222.87 			"/>
			<path class="st0" d="M177.33,238.72c-0.05-0.06-0.11-0.11-0.16-0.17C177.23,238.61,177.28,238.67,177.33,238.72z"/>
			<path class="st0" d="M230.46,61.61C218.64,42.42,201,28.2,180.73,19.62l0,0c0,0,0,0,0,0c0,0,0,0,0,0
				c20.61,14.88,30.2,36.37,30.57,58.18c0.19,11.12-2.03,22.32-6.39,32.78c-1.49,3.57-3.22,7.06-5.2,10.43l-15.25,25.85
				c-0.08,0.14-0.15,0.28-0.22,0.42c-0.14,0.27-0.28,0.55-0.44,0.82l-13.12,22.19l-11.58,19.59c-0.71,1.2-1.76,1.98-2.92,2.41
				l15.92,28.17l7.17,12.68c1.54,2.47,2.79,3.46,3.57,3.85c0.39,0.2,0.75,0.27,1.12,0.29c3.72,0.23,10.82-5.82,17.8-12.92
				l29.9-50.63C252.3,138.74,251.94,96.47,230.46,61.61z"/>
			<path class="st0" d="M176.24,237.39c-0.08-0.11-0.16-0.22-0.24-0.33C176.08,237.17,176.16,237.28,176.24,237.39z"/>
			<path class="st0" d="M178.39,239.79c-0.07-0.06-0.14-0.13-0.21-0.19C178.25,239.66,178.32,239.73,178.39,239.79z"/>
			<path class="st0" d="M182.94,242.1c-0.1-0.01-0.2-0.04-0.3-0.05C182.74,242.06,182.84,242.08,182.94,242.1z"/>
			<path class="st0" d="M180.58,241.33c-0.04-0.02-0.08-0.05-0.12-0.07C180.5,241.29,180.54,241.31,180.58,241.33z"/>
			<path class="st0" d="M179.56,240.71c-0.07-0.05-0.14-0.09-0.21-0.14C179.42,240.62,179.49,240.66,179.56,240.71z"/>
		</g>
	</g>
	<g>
		<g>
			<path class="st0" d="M381.45,177.86c-2.42,0-3.67,0.46-3.67,1.22c0,0.4,0.34,0.67,1.01,0.83c1.11,0.27,2.6,0.19,4.4,0.35
				c3.64,0.34,5.39,1.22,5.39,3.5c0,2.52-2.37,4.01-6.78,4.01c-2.9,0-5.31-0.64-7.54-2.18l1.54-1.89c1.99,1.22,3.96,1.8,6.13,1.8
				c2.34,0,3.66-0.67,3.66-1.62c0-1.03-1.51-1.03-3.98-1.14c-4.52-0.19-6.75-1.09-6.75-3.42c0-2.28,2.28-3.72,6.48-3.72
				c2.84,0,5.13,0.58,6.83,1.7l-1.6,1.86C384.92,178.27,383.26,177.86,381.45,177.86z"/>
			<path class="st0" d="M408.07,185.92c-1.46,1.2-3.53,1.91-5.9,1.91c-2.36,0-4.44-0.71-5.89-1.91c-1.32-1.09-1.99-2.55-1.99-4.25
				c0-1.68,0.69-3.13,2.01-4.22c1.48-1.22,3.58-1.93,5.89-1.93c2.33,0,4.43,0.72,5.89,1.93c1.32,1.09,2.01,2.53,2.01,4.22
				C410.08,183.37,409.39,184.83,408.07,185.92z M402.18,177.78c-3.03,0-4.99,1.6-4.99,3.9c0,2.34,1.91,3.91,4.97,3.91
				c3.08,0,5-1.57,5-3.91C407.17,179.38,405.23,177.78,402.18,177.78z"/>
			<path class="st0" d="M416.59,187.5v-11.61h2.82v9.38h8.93v2.23H416.59z"/>
			<path class="st0" d="M440.82,187.83c-4.35,0-7.02-1.8-7.02-4.25v-7.7h2.82v7.31c0,1.43,1.52,2.39,4.2,2.39
				c2.68,0,4.2-0.98,4.2-2.39v-7.31h2.82v7.7C447.84,186.04,445.16,187.83,440.82,187.83z"/>
			<path class="st0" d="M466.99,179.88c-1.4-1.4-3.11-2.1-5.07-2.1c-2.89,0-4.84,1.64-4.84,3.88c0,2.29,1.99,3.91,5.07,3.91
				c1.94,0,3.5-0.69,4.88-2.16l2.39,1.28c-1.8,2.07-3.87,3.05-6.64,3.11l-0.27,0.42c0.8,0.23,1.19,0.64,1.19,1.35
				c0,0.87-0.74,1.51-1.91,1.51c-0.53,0-1.11-0.13-1.76-0.39l0.45-0.85c0.35,0.14,0.67,0.23,0.98,0.23c0.45,0,0.74-0.26,0.74-0.55
				c0-0.18-0.13-0.31-0.29-0.31c-0.15,0-0.29,0.11-0.4,0.32l-0.79-0.35l0.77-1.38c-4.62-0.43-7.21-2.81-7.21-6.14
				c0-1.67,0.69-3.13,2.01-4.22c1.46-1.2,3.55-1.91,5.87-1.91c3.13,0,5.53,1.11,7.41,3.43L466.99,179.88z"/>
			<path class="st0" d="M488.8,185.92c-1.46,1.2-3.53,1.91-5.9,1.91c-2.36,0-4.44-0.71-5.89-1.91c-1.32-1.09-1.99-2.55-1.99-4.25
				c0-1.68,0.69-3.13,2-4.22c1.48-1.22,3.58-1.93,5.89-1.93c2.33,0,4.43,0.72,5.89,1.93c1.32,1.09,2.01,2.53,2.01,4.22
				C490.8,183.37,490.11,184.83,488.8,185.92z M482.91,177.78c-3.03,0-4.99,1.6-4.99,3.9c0,2.34,1.91,3.91,4.97,3.91
				c3.08,0,5-1.57,5-3.91C487.9,179.38,485.96,177.78,482.91,177.78z M483.99,174.7c-0.87,0-1.64-0.59-2.04-0.59
				c-0.29,0-0.53,0.29-0.83,0.85l-1.24-0.96c0.78-0.93,1.34-1.43,1.97-1.43c0.78,0,1.52,0.62,2.04,0.62c0.3,0,0.5-0.29,0.85-0.82
				l1.11,0.77C485.33,174.18,484.71,174.7,483.99,174.7z"/>
			<path class="st0" d="M497.32,187.5v-11.61h12.59v2.23h-9.77v2.37h6.79v2.23h-6.79v2.55h10.22v2.23H497.32z"/>
			<path class="st0" d="M523,177.86c-2.42,0-3.67,0.46-3.67,1.22c0,0.4,0.34,0.67,1.01,0.83c1.11,0.27,2.6,0.19,4.4,0.35
				c3.64,0.34,5.39,1.22,5.39,3.5c0,2.52-2.37,4.01-6.79,4.01c-2.9,0-5.31-0.64-7.54-2.18l1.54-1.89c1.99,1.22,3.96,1.8,6.13,1.8
				c2.34,0,3.66-0.67,3.66-1.62c0-1.03-1.51-1.03-3.98-1.14c-4.52-0.19-6.75-1.09-6.75-3.42c0-2.28,2.28-3.72,6.48-3.72
				c2.84,0,5.14,0.58,6.83,1.7l-1.6,1.86C526.46,178.27,524.81,177.86,523,177.86z"/>
			<path class="st0" d="M554.84,187.5l-1.33-2.5h-7.44l-1.33,2.5h-2.86l6.17-11.61h3.48l6.16,11.61H554.84z M549.77,178l-2.55,4.76
				h5.1L549.77,178z"/>
			<path class="st0" d="M575.83,185.92c-1.48,1.19-3.61,1.91-6.08,1.91c-2.34,0-4.43-0.71-5.89-1.92c-1.32-1.09-2-2.55-2-4.23
				c0-1.67,0.7-3.11,2.02-4.2c1.48-1.22,3.58-1.94,5.87-1.94c3.03,0,5.34,0.96,6.77,2.76l-2.93,1.03c-0.94-0.99-2.28-1.52-3.85-1.52
				c-3.01,0-5.1,1.67-5.1,3.88c0,1.22,0.56,2.2,1.7,2.95c0.87,0.58,2.08,0.95,3.42,0.95c2.36,0,4.27-1.01,5.04-2.44h-5.63v-2.24
				h8.76v0.67C577.91,183.33,577.21,184.8,575.83,185.92z"/>
			<path class="st0" d="M595.17,187.5l-2.86-4.11h-5.34v4.11h-2.82v-11.61h9.51c2.65,0,4.38,1.54,4.38,3.8c0,1.83-0.9,3.02-2.65,3.5
				l2.95,4.32H595.17z M595.25,179.6c0-0.88-0.71-1.49-1.91-1.49h-6.37v3.05h6.39C594.56,181.16,595.25,180.57,595.25,179.6z"/>
			<path class="st0" d="M617.56,185.92c-1.46,1.2-3.53,1.91-5.9,1.91c-2.36,0-4.44-0.71-5.89-1.91c-1.32-1.09-1.99-2.55-1.99-4.25
				c0-1.68,0.69-3.13,2-4.22c1.48-1.22,3.58-1.93,5.89-1.93c2.33,0,4.43,0.72,5.89,1.93c1.32,1.09,2,2.53,2,4.22
				C619.56,183.37,618.87,184.83,617.56,185.92z M611.67,177.78c-3.03,0-4.99,1.6-4.99,3.9c0,2.34,1.91,3.91,4.97,3.91
				c3.08,0,5-1.57,5-3.91C616.66,179.38,614.72,177.78,611.67,177.78z"/>
			<path class="st0" d="M639.96,179.68c0,2.41-1.54,3.71-4.49,3.71h-6.58v4.11h-2.82v-11.61h9.51
				C638.23,175.88,639.96,177.42,639.96,179.68z M637.17,179.67c0-0.99-0.67-1.56-1.91-1.56h-6.37v3.05h6.38
				C636.47,181.16,637.17,180.58,637.17,179.67z"/>
			<path class="st0" d="M645.65,187.5v-11.61h12.59v2.23h-9.77v2.37h6.78v2.23h-6.78v2.55h10.22v2.23H645.65z"/>
			<path class="st0" d="M676.65,179.88c-1.3-1.28-2.98-2.1-5.07-2.1c-2.89,0-4.84,1.64-4.84,3.88c0,2.29,1.99,3.91,5.07,3.91
				c1.96,0,3.51-0.69,4.88-2.16l2.39,1.28c-1.93,2.2-4.11,3.13-7.14,3.13c-2.05,0-3.79-0.46-5.46-1.49
				c-1.56-0.96-2.55-2.71-2.55-4.67c0-1.67,0.69-3.13,2.01-4.22c1.46-1.2,3.54-1.91,5.87-1.91c3.13,0,5.54,1.11,7.41,3.43
				L676.65,179.88z"/>
			<path class="st0" d="M692.21,187.83c-4.35,0-7.03-1.8-7.03-4.25v-7.7h2.82v7.31c0,1.43,1.52,2.39,4.2,2.39
				c2.68,0,4.2-0.98,4.2-2.39v-7.31h2.82v7.7C699.23,186.04,696.56,187.83,692.21,187.83z"/>
			<path class="st0" d="M717,187.5l-1.33-2.5h-7.45l-1.33,2.5h-2.86l6.18-11.61h3.48l6.16,11.61H717z M711.94,178l-2.55,4.76h5.1
				L711.94,178z M711.86,174.95h-1.3l1.24-2.98h2.29L711.86,174.95z"/>
			<path class="st0" d="M736.36,187.5l-2.86-4.11h-5.34v4.11h-2.82v-11.61h9.51c2.65,0,4.38,1.54,4.38,3.8c0,1.83-0.9,3.02-2.65,3.5
				l2.95,4.32H736.36z M736.44,179.6c0-0.88-0.71-1.49-1.91-1.49h-6.37v3.05h6.39C735.75,181.16,736.44,180.57,736.44,179.6z"/>
			<path class="st0" d="M745.73,187.5v-11.61h2.82v11.61H745.73z"/>
			<path class="st0" d="M766.96,187.5l-1.33-2.5h-7.44l-1.33,2.5H754l6.17-11.61h3.48l6.16,11.61H766.96z M761.89,178l-2.55,4.76
				h5.1L761.89,178z"/>
			<path class="st0" d="M781.59,177.86c-2.42,0-3.67,0.46-3.67,1.22c0,0.4,0.34,0.67,1.01,0.83c1.11,0.27,2.6,0.19,4.4,0.35
				c3.64,0.34,5.39,1.22,5.39,3.5c0,2.52-2.37,4.01-6.79,4.01c-2.9,0-5.31-0.64-7.54-2.18l1.54-1.89c1.99,1.22,3.96,1.8,6.13,1.8
				c2.34,0,3.66-0.67,3.66-1.62c0-1.03-1.51-1.03-3.98-1.14c-4.52-0.19-6.75-1.09-6.75-3.42c0-2.28,2.28-3.72,6.48-3.72
				c2.84,0,5.14,0.58,6.83,1.7l-1.6,1.86C785.05,178.27,783.4,177.86,781.59,177.86z"/>
		</g>
		<g>
			<path class="st0" d="M323.2,159.24l-28.56-48.3c-1.13-1.9,0.25-4.31,2.46-4.31h12.23c1.01,0,1.95,0.53,2.46,1.4l19.16,32.44
				l19.16-32.44c0.51-0.87,1.45-1.4,2.46-1.4h12.23c2.21,0,3.59,2.41,2.46,4.31l-28.56,48.3c-0.51,0.87-1.45,1.4-2.46,1.4h-10.59
				C324.65,160.64,323.71,160.11,323.2,159.24z"/>
			<path class="st0" d="M416.22,159.13l-4.85-9.11h-28.79l-4.85,9.11c-0.5,0.93-1.47,1.52-2.52,1.52h-10.97
				c-2.16,0-3.53-2.3-2.52-4.2l25.69-48.3c0.5-0.93,1.47-1.52,2.52-1.52h14.17c1.06,0,2.03,0.58,2.52,1.52l25.62,48.3
				c1.01,1.9-0.37,4.2-2.52,4.2h-10.97C417.69,160.64,416.72,160.06,416.22,159.13z M402.88,134.08l-4.91-9.17
				c-0.45-0.85-1.67-0.85-2.12,0l-4.91,9.17c-0.43,0.8,0.15,1.77,1.06,1.77h9.82C402.73,135.85,403.31,134.89,402.88,134.08z"/>
			<path class="st0" d="M441.87,157.79v-48.3c0-1.58,1.28-2.86,2.86-2.86h10.97c1.58,0,2.86,1.28,2.86,2.86v37h37.95v11.3
				c0,1.58-1.28,2.86-2.86,2.86h-48.92C443.14,160.64,441.87,159.36,441.87,157.79z"/>
			<path class="st0" d="M504.14,157.79v-48.3c0-1.58,1.28-2.86,2.86-2.86h10.97c1.58,0,2.86,1.28,2.86,2.86v37h37.95v11.3
				c0,1.58-1.28,2.86-2.86,2.86H507C505.42,160.64,504.14,159.36,504.14,157.79z"/>
			<path class="st0" d="M601.08,162.07c-10.4,0-19.81-3.07-26.51-8.65c-6.08-5.04-9.29-11.91-9.29-19.86
				c0-7.82,3.24-14.64,9.37-19.72c6.8-5.62,16.21-8.72,26.5-8.72c10.27,0,19.68,3.09,26.5,8.71c6.13,5.08,9.37,11.9,9.37,19.73
				c0,7.91-3.24,14.78-9.36,19.86C620.88,159,611.44,162.07,601.08,162.07z M601.15,119.36c-11.27,0-18.84,5.71-18.84,14.21
				c0,8.81,7.2,14.28,18.78,14.28c11.67,0,18.91-5.47,18.91-14.28C619.99,124.93,612.59,119.36,601.15,119.36z"/>
			<path class="st0" d="M680.39,162.07c-19.25,0-32.19-8.2-32.19-20.4v-32.19c0-1.58,1.28-2.86,2.86-2.86h10.97
				c1.58,0,2.86,1.28,2.86,2.86v30.56c0,4.81,5.94,7.81,15.51,7.81c9.42,0,15.5-3.06,15.5-7.81v-30.56c0-1.58,1.28-2.86,2.86-2.86
				h10.97c1.58,0,2.86,1.28,2.86,2.86v32.19C712.58,153.88,699.64,162.07,680.39,162.07z"/>
			<path class="st0" d="M855.51,159.13l-4.85-9.11h-28.79l-4.85,9.11c-0.5,0.93-1.47,1.52-2.52,1.52h-10.97
				c-2.16,0-3.53-2.3-2.52-4.2l25.69-48.3c0.5-0.93,1.47-1.52,2.52-1.52h14.17c1.06,0,2.03,0.58,2.52,1.52l25.62,48.3
				c1.01,1.9-0.37,4.2-2.52,4.2h-10.97C856.97,160.64,856,160.06,855.51,159.13z M843.11,135.85l-5.86-10.94
				c-0.45-0.85-1.67-0.85-2.12,0l-4.91,9.17c-0.43,0.8,0.15,1.77,1.06,1.77H843.11z"/>
			<path class="st0" d="M776.73,160.64c-0.94,0-1.81-0.46-2.35-1.23l-11.31-16.27l-0.69-0.95l-6.04-8.67
				c-1.32-1.89,0.03-4.49,2.34-4.49h10.08c2.6,0,5.69-0.74,5.69-4.26c0-3.7-4.41-3.99-5.76-3.99h-23.5c-0.66,0-1.2,0.54-1.2,1.2
				v35.8c0,1.58-1.28,2.86-2.86,2.86h-10.97c-1.58,0-2.86-1.28-2.86-2.86v-46.94c0-2.33,1.89-4.22,4.22-4.22h38.53
				c12.53,0,20.94,7.43,20.94,18.49c0,7.74-3.41,13.23-9.92,16.05l10.26,15c1.3,1.9-0.06,4.47-2.36,4.47H776.73z"/>
		</g>
	</g>
</g>
</svg>
