<svg xmlns="http://www.w3.org/2000/svg" xmlns:xlink="http://www.w3.org/1999/xlink" width="323.206" height="93.446" viewBox="0 0 323.206 93.446"><defs><clipPath id="a"><path d="M71.669,77.139a19.244,19.244,0,0,0-.179,19.451l30.841,54.6a19.271,19.271,0,0,0,17.084,9.884,19.78,19.78,0,0,0,14.813-7.227c-2.3,2.539-4.772,3.118-6.953-.408L96.32,98.672h0L79.888,69.55A19.321,19.321,0,0,0,71.669,77.139Z" transform="translate(-68.94 -69.55)"/></clipPath><linearGradient id="b" x1="-0.505" y1="-0.808" x2="0.733" y2="0.803" gradientUnits="objectBoundingBox"><stop offset="0" stop-color="#0d5c2b"/><stop offset="0.729" stop-color="#859f24"/><stop offset="1" stop-color="#b1c110"/></linearGradient><clipPath id="c"><path d="M131.9,76.57a17.216,17.216,0,0,0,14.839,8.748l.278,0a22.971,22.971,0,0,1,12.956,3.938c9.487,6.693,10.574,18.457,5.611,27.334l5.79-9.819c7.28-12.346,5.977-28.988-7.208-38.506a44.387,44.387,0,0,0-16.905-3.556l-22.181-.2Z" transform="translate(-125.08 -64.51)"/></clipPath><linearGradient id="d" x1="-0.446" y1="0.261" x2="1.094" y2="0.65" gradientUnits="objectBoundingBox"><stop offset="0" stop-color="#b1c110"/><stop offset="0.206" stop-color="#adbe14"/><stop offset="0.378" stop-color="#a0b41b"/><stop offset="0.538" stop-color="#8ba422"/><stop offset="0.691" stop-color="#6d8f29"/><stop offset="0.839" stop-color="#49782c"/><stop offset="0.981" stop-color="#185f2b"/><stop offset="1" stop-color="#0d5c2b"/></linearGradient><clipPath id="e"><path d="M215.347,112.883l-5.79,9.819c-.088.156-.16.316-.252.469l-9.381,15.868A2.186,2.186,0,0,1,196.14,139l9.846,17.424c2.18,3.526,4.65,2.946,6.953.408.21-.248.435-.476.633-.732.091-.118.183-.252.274-.377a21.963,21.963,0,0,0,1.292-1.921l12.339-20.892A40.714,40.714,0,0,0,208.132,74.38C221.324,83.894,222.628,100.536,215.347,112.883Z" transform="translate(-196.14 -74.38)"/></clipPath><linearGradient id="f" x1="0.95" y1="0.13" x2="-0.595" y2="1.4" gradientUnits="objectBoundingBox"><stop offset="0" stop-color="#b1c110"/><stop offset="0.58" stop-color="#63892a"/><stop offset="0.84" stop-color="#0d5c2b"/><stop offset="1" stop-color="#0d5c2b"/></linearGradient><clipPath id="g"><path d="M215.347,112.87l-5.79,9.819c-.088.156-.16.316-.252.469l-9.381,15.868a2.186,2.186,0,0,1-3.785-.034l.781,1.384a2.693,2.693,0,0,0,1.094.3h0a2.727,2.727,0,0,0,2.4-1.357l9.381-15.868c.057-.1.107-.194.156-.294l5.889-10c6.591-11.176,6.678-27.208-5.169-37.5-.85-.427-1.662-.922-2.539-1.3C221.324,83.882,222.628,100.524,215.347,112.87Z" transform="translate(-196.14 -74.36)"/></clipPath><linearGradient id="h" x1="0.01" y1="0.498" x2="0.829" y2="0.501" gradientUnits="objectBoundingBox"><stop offset="0" stop-color="#b1c110"/><stop offset="0.149" stop-color="#abbc15"/><stop offset="0.332" stop-color="#98ae1e"/><stop offset="0.534" stop-color="#7a9827"/><stop offset="0.748" stop-color="#507d2b"/><stop offset="0.97" stop-color="#1a602b"/><stop offset="1" stop-color="#0d5c2b"/></linearGradient><clipPath id="i"><path d="M125.09,64.53l.324.572,21.849.2c8.923.08,13.212,1.788,17.4,3.846a16.518,16.518,0,0,1,2.581,1.616c.061-.21.1-.423.172-.629a17.182,17.182,0,0,0-2.642-1.593,40.015,40.015,0,0,0-17.5-3.816L125.09,64.53Z" transform="translate(-125.09 -64.53)"/></clipPath><linearGradient id="j" x1="0.914" y1="3.653" x2="0.439" y2="0.034" gradientUnits="objectBoundingBox"><stop offset="0" stop-color="#0d5c2b"/><stop offset="0.03" stop-color="#1a602b"/><stop offset="0.252" stop-color="#507d2b"/><stop offset="0.466" stop-color="#7a9827"/><stop offset="0.668" stop-color="#98ae1e"/><stop offset="0.851" stop-color="#abbc15"/><stop offset="1" stop-color="#b1c110"/></linearGradient><clipPath id="k"><path d="M96.36,69.84l47.4,83.9c1.048,1.692,2.249,2.615,3.572,2.737.088.008.179.011.267.011a3.539,3.539,0,0,0,1.121-.194,21.793,21.793,0,0,0,2.478-2.451c-2.3,2.539-4.772,3.118-6.953-.408L113.284,98.664,96.856,69.55c-.172.084-.328.2-.5.29" transform="translate(-96.36 -69.55)"/></clipPath><linearGradient id="l" x1="-0.007" y1="0.497" x2="1.007" y2="0.503" xlink:href="#h"/><clipPath id="m"><path d="M119.5,111.645l24.258,42.566-23.926-42.753L96.36,70.31Z" transform="translate(-96.36 -70.31)"/></clipPath><linearGradient id="n" x1="0.2" y1="0.199" x2="0.822" y2="0.823" gradientUnits="objectBoundingBox"><stop offset="0" stop-color="#b1c110"/><stop offset="0.34" stop-color="#dce099"/><stop offset="0.49" stop-color="#fff"/><stop offset="1" stop-color="#b1c110"/></linearGradient><clipPath id="o"><path d="M240.587,88.442a29.236,29.236,0,0,1,1.864,12.861,32.45,32.45,0,0,1-3.549,12.533l-6.522,11.447c2.272-3.762,4.612-7.475,6.747-11.329a32.8,32.8,0,0,0,3.705-12.621,29.579,29.579,0,0,0-2.009-12.983A27.513,27.513,0,0,0,233.1,77.78,29.17,29.17,0,0,1,240.587,88.442Z" transform="translate(-232.38 -77.78)"/></clipPath><linearGradient id="p" x1="0.258" y1="0.811" x2="0.795" y2="0.122" xlink:href="#n"/></defs><g transform="translate(-68.94 -64.51)"><g transform="translate(68.94 64.51)"><g transform="translate(0 1.921)"><g clip-path="url(#a)"><rect width="66.195" height="91.57" transform="translate(-0.911)" fill="url(#b)"/></g></g><g transform="translate(21.399)"><g clip-path="url(#c)"><rect width="53.57" height="52.084" transform="translate(0.004 0.004)" fill="url(#d)"/></g></g><g transform="translate(48.485 3.762)"><g clip-path="url(#e)"><rect width="39.181" height="85.57" transform="translate(0.004 0)" fill="url(#f)"/></g></g><g transform="translate(48.485 3.755)"><g clip-path="url(#g)"><rect width="26.488" height="66.317" transform="translate(0.004 0.008)" fill="url(#h)"/></g></g><g transform="translate(21.403 0.008)"><g clip-path="url(#i)"><rect width="42.322" height="6.236" transform="translate(0 -0.004)" fill="url(#j)"/></g></g><g transform="translate(10.452 1.921)"><g clip-path="url(#k)"><rect width="54.836" height="87.411" fill="url(#l)"/></g></g><g transform="translate(10.452 2.211)"><g clip-path="url(#m)"><rect width="47.395" height="83.901" fill="url(#n)"/></g></g><g transform="translate(62.299 5.058)"><g clip-path="url(#o)"><rect width="10.715" height="47.498" transform="translate(0.004 -0.004)" fill="url(#p)"/></g></g></g><g transform="translate(203.156 125.807)"><path d="M423.787,229.781c-.919,0-1.4.175-1.4.461,0,.152.126.255.381.316a14.792,14.792,0,0,0,1.67.133c1.384.13,2.047.461,2.047,1.327,0,.957-.9,1.521-2.577,1.521a4.8,4.8,0,0,1-2.863-.827l.587-.717a4.332,4.332,0,0,0,2.325.682c.888,0,1.391-.255,1.391-.618,0-.389-.572-.389-1.513-.431-1.719-.072-2.565-.415-2.565-1.3,0-.865.865-1.414,2.462-1.414a4.688,4.688,0,0,1,2.6.644l-.61.705a4.035,4.035,0,0,0-1.936-.488" transform="translate(-421.05 -227.548)" fill="#4d5e54"/><path d="M446.26,232.815a3.819,3.819,0,0,1-4.475,0,2.081,2.081,0,0,1,.008-3.213,3.775,3.775,0,0,1,4.467,0,2.011,2.011,0,0,1,.762,1.6,2.034,2.034,0,0,1-.762,1.612m-2.234-3.1c-1.151,0-1.894.61-1.894,1.479,0,.888.724,1.487,1.887,1.487s1.9-.595,1.9-1.487C445.92,230.33,445.185,229.72,444.026,229.72Z" transform="translate(-433.414 -227.517)" fill="#4d5e54"/><path d="M463.24,233.63v-4.41h1.075v3.56h3.392v.85Z" transform="translate(-447.158 -227.733)" fill="#4d5e54"/><path d="M483.048,233.75c-1.651,0-2.668-.682-2.668-1.616V229.21h1.071v2.779c0,.541.579.907,1.6.907s1.6-.37,1.6-.907V229.21h1.075v2.924c0,.934-1.022,1.616-2.672,1.616" transform="translate(-457.765 -227.727)" fill="#4d5e54"/><path d="M505.607,230.527a2.64,2.64,0,0,0-1.925-.8c-1.1,0-1.841.621-1.841,1.475,0,.873.755,1.487,1.925,1.487a2.406,2.406,0,0,0,1.853-.823l.907.488A3.208,3.208,0,0,1,504,233.538l-.1.156c.3.084.45.244.45.511,0,.328-.278.572-.724.572a1.9,1.9,0,0,1-.671-.145l.172-.324a1.006,1.006,0,0,0,.37.084c.172,0,.278-.1.278-.206a.109.109,0,0,0-.111-.114.192.192,0,0,0-.152.122l-.3-.133.293-.522c-1.753-.164-2.737-1.067-2.737-2.333a2.022,2.022,0,0,1,.762-1.6,3.5,3.5,0,0,1,2.23-.724,3.383,3.383,0,0,1,2.813,1.3Z" transform="translate(-470.383 -227.523)" fill="#4d5e54"/><path d="M526.69,230.86a3.818,3.818,0,0,1-4.475,0,2.081,2.081,0,0,1,.008-3.213,3.781,3.781,0,0,1,4.471,0,2.017,2.017,0,0,1,.762,1.6,2.049,2.049,0,0,1-.766,1.612m-2.234-3.1c-1.151,0-1.894.61-1.894,1.479,0,.888.724,1.487,1.887,1.487s1.9-.6,1.9-1.487C526.351,228.374,525.615,227.765,524.456,227.765Zm.408-1.17c-.332,0-.621-.225-.774-.225-.111,0-.2.111-.316.324l-.469-.366c.3-.354.511-.541.747-.541.3,0,.579.236.774.236.114,0,.191-.111.324-.313l.419.294C525.375,226.4,525.138,226.594,524.864,226.594Z" transform="translate(-483.186 -225.561)" fill="#4d5e54"/><path d="M543.67,233.63v-4.41h4.784v.846h-3.713v.9h2.577v.846h-2.577v.968h3.88v.85Z" transform="translate(-496.93 -227.733)" fill="#4d5e54"/><path d="M564.823,229.781c-.922,0-1.4.175-1.4.461,0,.152.126.255.385.316a14.719,14.719,0,0,0,1.67.133c1.384.13,2.047.461,2.047,1.327,0,.957-.9,1.521-2.577,1.521a4.805,4.805,0,0,1-2.863-.827l.587-.717a4.335,4.335,0,0,0,2.329.682c.888,0,1.388-.255,1.388-.618,0-.389-.572-.389-1.51-.431-1.719-.072-2.565-.415-2.565-1.3,0-.865.865-1.414,2.462-1.414a4.688,4.688,0,0,1,2.6.644l-.61.705a4.086,4.086,0,0,0-1.944-.488" transform="translate(-508.329 -227.548)" fill="#4d5e54"/><path d="M592.989,233.62l-.507-.949h-2.828l-.507.949H588.06l2.344-4.41h1.323l2.34,4.41Zm-1.925-3.606-.968,1.811h1.936Z" transform="translate(-524.4 -227.727)" fill="#4d5e54"/><path d="M613.27,232.809a3.689,3.689,0,0,1-2.31.724,3.482,3.482,0,0,1-2.238-.732,2.063,2.063,0,0,1,0-3.206,3.53,3.53,0,0,1,2.23-.736,3.12,3.12,0,0,1,2.569,1.048l-1.113.389a1.958,1.958,0,0,0-1.46-.579c-1.144,0-1.937.633-1.937,1.475a1.294,1.294,0,0,0,.644,1.121,2.392,2.392,0,0,0,1.3.358,2.13,2.13,0,0,0,1.913-.926h-2.138v-.854h3.328v.255a2.039,2.039,0,0,1-.789,1.662" transform="translate(-536.714 -227.511)" fill="#4d5e54"/><path d="M634.375,233.63l-1.086-1.559h-2.028v1.559H630.19v-4.41H633.8a1.476,1.476,0,0,1,1.662,1.445,1.255,1.255,0,0,1-1.006,1.326l1.121,1.639Zm.03-3c0-.335-.267-.568-.724-.568h-2.421v1.159h2.424C634.143,231.221,634.406,231,634.406,230.63Z" transform="translate(-550.471 -227.733)" fill="#4d5e54"/><path d="M654.98,232.815a3.819,3.819,0,0,1-4.475,0,2.027,2.027,0,0,1-.755-1.612,2,2,0,0,1,.762-1.6,3.786,3.786,0,0,1,4.475,0,2.011,2.011,0,0,1,.762,1.6,2.064,2.064,0,0,1-.77,1.612m-2.237-3.1c-1.151,0-1.894.61-1.894,1.479,0,.888.724,1.487,1.891,1.487s1.9-.595,1.9-1.487C654.641,230.33,653.9,229.72,652.742,229.72Z" transform="translate(-562.575 -227.517)" fill="#4d5e54"/><path d="M677.242,230.655c0,.915-.583,1.407-1.7,1.407h-2.5v1.559H671.97v-4.41h3.613a1.48,1.48,0,0,1,1.658,1.445m-1.064,0c0-.377-.255-.591-.724-.591h-2.421v1.155h2.424C675.911,231.215,676.178,231,676.178,230.651Z" transform="translate(-576.325 -227.727)" fill="#4d5e54"/><path d="M691.46,233.63v-4.41h4.784v.846h-3.709v.9h2.577v.846h-2.577v.968h3.877v.85Z" transform="translate(-588.386 -227.733)" fill="#4d5e54"/><path d="M714.493,230.527a2.66,2.66,0,0,0-1.925-.8c-1.1,0-1.841.621-1.841,1.475,0,.873.755,1.487,1.925,1.487a2.383,2.383,0,0,0,1.853-.823l.907.488a3.3,3.3,0,0,1-2.71,1.189,3.773,3.773,0,0,1-2.074-.568,2.075,2.075,0,0,1-.968-1.772,2.022,2.022,0,0,1,.762-1.6,3.5,3.5,0,0,1,2.23-.724,3.383,3.383,0,0,1,2.813,1.3Z" transform="translate(-599.649 -227.523)" fill="#4d5e54"/><path d="M733.518,233.75c-1.65,0-2.668-.682-2.668-1.616V229.21h1.075v2.779c0,.541.579.907,1.6.907s1.6-.37,1.6-.907V229.21h1.071v2.924c0,.934-1.022,1.616-2.672,1.616" transform="translate(-612.762 -227.727)" fill="#4d5e54"/><path d="M754.561,231.217l-.5-.949H751.23l-.5.949H749.64l2.344-4.41h1.323l2.34,4.41Zm-1.925-3.61-.968,1.811H753.6Zm-.031-1.155h-.492l.469-1.132h.873Z" transform="translate(-624.389 -225.32)" fill="#4d5e54"/><path d="M775.035,233.63l-1.086-1.559h-2.028v1.559H770.85v-4.41h3.614a1.476,1.476,0,0,1,1.662,1.445,1.255,1.255,0,0,1-1.006,1.326l1.121,1.639Zm.031-3c0-.335-.267-.568-.724-.568h-2.42v1.159h2.424C774.807,231.221,775.066,231,775.066,230.63Z" transform="translate(-637.515 -227.733)" fill="#4d5e54"/><rect width="1.071" height="4.41" transform="translate(141.081 1.487)" fill="#4d5e54"/><path d="M804.325,233.62l-.507-.949h-2.825l-.507.949H799.4l2.344-4.41h1.323l2.341,4.41Zm-1.925-3.606-.968,1.811h1.936Z" transform="translate(-655.182 -227.727)" fill="#4d5e54"/><path d="M822.463,229.781c-.922,0-1.4.175-1.4.461,0,.152.126.255.385.316a14.717,14.717,0,0,0,1.67.133c1.384.13,2.047.461,2.047,1.327,0,.957-.9,1.521-2.577,1.521a4.806,4.806,0,0,1-2.863-.827l.587-.717a4.335,4.335,0,0,0,2.329.682c.888,0,1.387-.255,1.387-.618,0-.389-.572-.389-1.509-.431-1.719-.072-2.565-.415-2.565-1.3,0-.865.865-1.414,2.462-1.414a4.688,4.688,0,0,1,2.6.644l-.61.705a4.1,4.1,0,0,0-1.944-.488" transform="translate(-667.763 -227.548)" fill="#4d5e54"/></g><g transform="translate(172.773 100.424)"><path d="M352.337,180.191l-10.844-18.346a1.084,1.084,0,0,1,.934-1.635h4.647a1.08,1.08,0,0,1,.934.534l7.273,12.32,7.277-12.32a1.08,1.08,0,0,1,.934-.534h4.647a1.085,1.085,0,0,1,.934,1.635l-10.844,18.346a1.08,1.08,0,0,1-.934.534h-4.021a1.089,1.089,0,0,1-.934-.534" transform="translate(-341.341 -159.646)" fill="#4d5e54"/><path d="M429.068,180.149l-1.841-3.461H416.291l-1.841,3.461a1.082,1.082,0,0,1-.957.576h-4.166a1.083,1.083,0,0,1-.957-1.593l9.754-18.346a1.082,1.082,0,0,1,.957-.576h5.382a1.092,1.092,0,0,1,.961.576l9.731,18.346a1.084,1.084,0,0,1-.961,1.593h-4.166a1.083,1.083,0,0,1-.961-.576m-5.07-9.51-1.864-3.484a.46.46,0,0,0-.808,0l-1.864,3.484a.455.455,0,0,0,.4.671h3.728A.455.455,0,0,0,424,170.639Z" transform="translate(-382.74 -159.646)" fill="#4d5e54"/><path d="M488.42,179.642V161.3a1.086,1.086,0,0,1,1.086-1.086h4.166a1.086,1.086,0,0,1,1.086,1.086v14.05h14.412v4.292a1.088,1.088,0,0,1-1.086,1.086H489.506a1.085,1.085,0,0,1-1.086-1.083" transform="translate(-432.357 -159.646)" fill="#4d5e54"/><path d="M550.48,179.642V161.3a1.086,1.086,0,0,1,1.086-1.086h4.166a1.086,1.086,0,0,1,1.086,1.086v14.05h14.412v4.292a1.088,1.088,0,0,1-1.086,1.086H551.566a1.083,1.083,0,0,1-1.086-1.083" transform="translate(-470.761 -159.646)" fill="#4d5e54"/><path d="M624.977,180.354a15.676,15.676,0,0,1-10.067-3.286,9.741,9.741,0,0,1,.027-15.03,16.958,16.958,0,0,1,20.126,0,9.726,9.726,0,0,1,0,15.037,15.838,15.838,0,0,1-10.086,3.278M625,164.131c-4.281,0-7.155,2.169-7.155,5.4,0,3.343,2.733,5.424,7.128,5.424,4.429,0,7.181-2.077,7.181-5.424C632.162,166.247,629.349,164.131,625,164.131Z" transform="translate(-508.447 -158.73)" fill="#4d5e54"/><path d="M706.234,181.276c-7.311,0-12.224-3.114-12.224-7.745V161.306a1.086,1.086,0,0,1,1.086-1.086h4.166a1.086,1.086,0,0,1,1.086,1.086v11.6c0,1.83,2.257,2.966,5.889,2.966,3.575,0,5.889-1.163,5.889-2.966v-11.6a1.086,1.086,0,0,1,1.086-1.086h4.166a1.086,1.086,0,0,1,1.086,1.086v12.224c-.011,4.631-4.921,7.745-12.232,7.745" transform="translate(-559.581 -159.652)" fill="#4d5e54"/><path d="M866.738,180.149l-1.841-3.461H853.961l-1.841,3.461a1.082,1.082,0,0,1-.957.576H847a1.084,1.084,0,0,1-.957-1.593l9.754-18.346a1.082,1.082,0,0,1,.957-.576h5.382a1.092,1.092,0,0,1,.96.576l9.731,18.346a1.084,1.084,0,0,1-.96,1.593H867.7a1.083,1.083,0,0,1-.96-.576m-4.708-8.839-2.222-4.155a.457.457,0,0,0-.8,0l-1.864,3.484a.455.455,0,0,0,.4.671Z" transform="translate(-653.581 -159.646)" fill="#4d5e54"/><path d="M791.589,180.731a1.1,1.1,0,0,1-.892-.465l-4.3-6.179-.263-.362-2.295-3.29a1.085,1.085,0,0,1,.892-1.7h3.831c.987,0,2.161-.282,2.161-1.62,0-1.407-1.673-1.517-2.188-1.517h-8.923a.459.459,0,0,0-.458.457v13.6a1.088,1.088,0,0,1-1.086,1.086h-4.166a1.086,1.086,0,0,1-1.086-1.086V161.821a1.6,1.6,0,0,1,1.6-1.6h14.633c4.757,0,7.955,2.821,7.955,7.021a6.122,6.122,0,0,1-3.77,6.095l3.9,5.7a1.084,1.084,0,0,1-.9,1.7Z" transform="translate(-608.35 -159.652)" fill="#4d5e54"/></g><path d="M542.3,230.76c-.065.031-.13.057-.194.084.065-.031.13-.053.194-.084" transform="translate(-292.809 -102.879)"/><path d="M541.328,231.17c-.057.019-.114.038-.168.053.053-.015.111-.034.168-.053" transform="translate(-292.221 -103.133)"/><path d="M540.317,231.45c-.046.008-.092.019-.137.027.046-.008.091-.015.137-.027" transform="translate(-291.614 -103.306)"/><path d="M537.105,231.251c-.031-.011-.065-.019-.1-.03.03.011.065.019.1.03" transform="translate(-289.653 -103.164)"/><path d="M543.391,229.79a5.03,5.03,0,0,1-.541.32,4.682,4.682,0,0,0,.541-.32" transform="translate(-293.267 -102.279)"/><path d="M544.673,229.14c-.1.076-.194.152-.293.221.1-.069.194-.145.293-.221" transform="translate(-294.213 -101.877)"/><path d="M545.27,228.625c.1-.08.2-.168.3-.255-.1.091-.2.175-.3.255" transform="translate(-294.764 -101.4)"/><path d="M539.18,231.6h0" transform="translate(-290.995 -103.399)"/><path d="M532.987,228.311c-.019-.019-.038-.038-.057-.061.019.019.038.038.057.061" transform="translate(-287.128 -101.326)"/><path d="M531.934,226.994c-.027-.038-.057-.076-.084-.114.027.038.053.076.084.114" transform="translate(-286.46 -100.478)"/><path d="M533.932,229.279c-.023-.023-.05-.046-.072-.069.027.023.049.05.072.069" transform="translate(-287.703 -101.92)"/><path d="M538.087,231.489c-.034,0-.069-.011-.107-.019a.892.892,0,0,0,.107.019" transform="translate(-290.253 -103.319)"/><path d="M536.012,230.783l-.042-.023a.407.407,0,0,0,.042.023" transform="translate(-289.009 -102.879)"/><path d="M535.013,230.16a.8.8,0,0,1-.072-.05.81.81,0,0,0,.072.05" transform="translate(-288.372 -102.477)"/></g></svg>