<svg xmlns="http://www.w3.org/2000/svg" xmlns:xlink="http://www.w3.org/1999/xlink" width="217.844" height="140.602" viewBox="0 0 217.844 140.602"><defs><clipPath id="a"><path d="M2.731,7.594a19.256,19.256,0,0,0-.179,19.464l30.86,54.634a19.284,19.284,0,0,0,17.1,9.89A19.792,19.792,0,0,0,65.329,84.35c-2.3,2.54-4.775,3.12-6.957-.408L27.4,29.14h0L10.954,0A19.333,19.333,0,0,0,2.731,7.594Z" fill="#fff"/></clipPath><clipPath id="b"><path d="M6.824,12.068a17.227,17.227,0,0,0,14.849,8.754l.278,0a22.985,22.985,0,0,1,12.964,3.94c9.493,6.7,10.58,18.468,5.614,27.351l5.794-9.825C53.608,29.937,52.3,13.285,39.11,3.761A44.415,44.415,0,0,0,22.195.2L0,0Z" fill="#fff"/></clipPath><clipPath id="c"><path d="M19.22,38.527l-5.794,9.825c-.088.156-.16.317-.252.469L3.787,64.7A2.187,2.187,0,0,1,0,64.665L9.852,82.1c2.182,3.528,4.653,2.948,6.957.408.21-.248.435-.477.633-.732.092-.118.183-.252.275-.378a21.985,21.985,0,0,0,1.293-1.922L31.356,58.57A40.824,40.824,0,0,0,30.9,15.958,40.612,40.612,0,0,0,12,0C25.2,9.52,26.5,26.173,19.22,38.527Z" fill="#fff"/></clipPath><clipPath id="d"><path d="M19.22,38.534,13.426,48.36c-.088.156-.16.317-.252.469L3.787,64.707A2.187,2.187,0,0,1,0,64.673l.782,1.385a2.7,2.7,0,0,0,1.095.3h0A2.729,2.729,0,0,0,4.283,65L13.67,49.123c.057-.1.107-.195.156-.294l5.893-10C26.314,27.641,26.4,11.6,14.547,1.3,13.7.87,12.884.374,12.007,0,25.2,9.528,26.5,26.18,19.22,38.534Z" fill="#9ac43c"/></clipPath><clipPath id="e"><path d="M0,0,.324.572l21.863.2c8.929.08,13.22,1.789,17.412,3.848a16.533,16.533,0,0,1,2.582,1.617c.061-.21.1-.423.172-.629a17.19,17.19,0,0,0-2.643-1.594A40.041,40.041,0,0,0,22.195.195L0,0Z" fill="#9ac43c"/></clipPath><clipPath id="f"><path d="M0,.29,47.425,84.243c1.049,1.693,2.25,2.616,3.574,2.739.088.008.179.011.267.011a3.54,3.54,0,0,0,1.121-.195,21.808,21.808,0,0,0,2.479-2.452c-2.3,2.54-4.775,3.12-6.957-.408L16.935,29.133.5,0C.324.084.168.2,0,.29" fill="#9ac43c"/></clipPath><clipPath id="g"><path d="M23.152,41.361,47.425,83.954,23.484,41.174,0,0Z" fill="#7fcd4e"/></clipPath><clipPath id="h"><path d="M8.212,10.668a29.255,29.255,0,0,1,1.865,12.869A32.47,32.47,0,0,1,6.526,36.078L0,47.532c2.273-3.765,4.615-7.48,6.751-11.336a32.822,32.822,0,0,0,3.707-12.629,29.6,29.6,0,0,0-2.01-12.991A27.531,27.531,0,0,0,.721,0,29.188,29.188,0,0,1,8.212,10.668Z" fill="#9ac43c"/></clipPath></defs><g transform="translate(3025 -6733.262)"><g transform="translate(-3025 6837.772)"><g transform="translate(31.314 25.206)"><path d="M423.768,229.775c-.912,0-1.385.174-1.385.458,0,.151.125.254.379.314a14.69,14.69,0,0,0,1.658.132c1.374.129,2.033.458,2.033,1.317,0,.95-.893,1.51-2.559,1.51a4.764,4.764,0,0,1-2.843-.821l.583-.712a4.3,4.3,0,0,0,2.309.678c.882,0,1.382-.254,1.382-.613,0-.386-.568-.386-1.5-.428-1.707-.072-2.547-.413-2.547-1.287,0-.859.859-1.4,2.445-1.4a4.655,4.655,0,0,1,2.578.64l-.606.7a4.006,4.006,0,0,0-1.923-.485" transform="translate(-421.05 -227.557)" fill="#fff"/><path d="M446.223,232.788a3.792,3.792,0,0,1-4.444,0,2.066,2.066,0,0,1,.008-3.191,3.748,3.748,0,0,1,4.436,0,2,2,0,0,1,.757,1.59,2.019,2.019,0,0,1-.757,1.6m-2.218-3.074c-1.143,0-1.881.606-1.881,1.469,0,.882.719,1.476,1.874,1.476s1.889-.59,1.889-1.476C445.886,230.32,445.156,229.714,444.005,229.714Z" transform="translate(-433.467 -227.526)" fill="#fff"/><path d="M463.24,233.6V229.22h1.067v3.535h3.369v.844Z" transform="translate(-447.27 -227.744)" fill="#fff"/><path d="M483.03,233.718c-1.639,0-2.65-.678-2.65-1.6v-2.9h1.064v2.759c0,.537.575.9,1.586.9s1.586-.367,1.586-.9V229.21h1.067v2.9c0,.927-1.014,1.6-2.653,1.6" transform="translate(-457.922 -227.738)" fill="#fff"/><path d="M505.573,230.515a2.621,2.621,0,0,0-1.911-.791c-1.09,0-1.828.617-1.828,1.465,0,.867.749,1.476,1.911,1.476a2.389,2.389,0,0,0,1.84-.818l.9.484a3.186,3.186,0,0,1-2.506,1.173l-.1.155c.3.083.447.242.447.507,0,.326-.276.568-.719.568a1.891,1.891,0,0,1-.666-.144l.17-.322a1,1,0,0,0,.367.083c.17,0,.276-.1.276-.2a.108.108,0,0,0-.11-.114.19.19,0,0,0-.151.121l-.3-.132.291-.519c-1.741-.163-2.718-1.06-2.718-2.317a2.008,2.008,0,0,1,.757-1.59,3.476,3.476,0,0,1,2.214-.719,3.359,3.359,0,0,1,2.793,1.295Z" transform="translate(-470.595 -227.532)" fill="#fff"/><path d="M526.653,230.824a3.792,3.792,0,0,1-4.444,0,2.066,2.066,0,0,1,.008-3.191,3.754,3.754,0,0,1,4.44,0,2,2,0,0,1,.757,1.59,2.034,2.034,0,0,1-.761,1.6m-2.218-3.074c-1.143,0-1.881.606-1.881,1.469,0,.882.719,1.476,1.874,1.476s1.889-.594,1.889-1.476C526.316,228.356,525.586,227.75,524.435,227.75Zm.405-1.162c-.329,0-.617-.223-.768-.223-.11,0-.2.11-.314.322l-.466-.363c.3-.352.507-.537.742-.537.3,0,.575.235.768.235.113,0,.189-.11.322-.31l.416.291C525.347,226.4,525.113,226.588,524.84,226.588Z" transform="translate(-483.453 -225.562)" fill="#fff"/><path d="M543.67,233.6V229.22h4.75v.84h-3.687v.893h2.559v.84h-2.559v.961h3.853v.844Z" transform="translate(-497.256 -227.744)" fill="#fff"/><path d="M564.8,229.775c-.916,0-1.385.174-1.385.458,0,.151.125.254.382.314a14.613,14.613,0,0,0,1.658.132c1.374.129,2.033.458,2.033,1.317,0,.95-.893,1.51-2.559,1.51a4.772,4.772,0,0,1-2.843-.821l.583-.712a4.3,4.3,0,0,0,2.313.678c.882,0,1.378-.254,1.378-.613,0-.386-.568-.386-1.5-.428-1.707-.072-2.547-.413-2.547-1.287,0-.859.859-1.4,2.445-1.4a4.655,4.655,0,0,1,2.578.64l-.606.7a4.057,4.057,0,0,0-1.93-.485" transform="translate(-508.704 -227.557)" fill="#fff"/><path d="M592.954,233.589l-.5-.943h-2.809l-.5.943H588.06l2.328-4.379H591.7l2.324,4.379Zm-1.911-3.581-.961,1.8H592Z" transform="translate(-524.844 -227.738)" fill="#fff"/><path d="M613.233,232.781a3.663,3.663,0,0,1-2.294.719,3.458,3.458,0,0,1-2.222-.727,2.049,2.049,0,0,1,0-3.183,3.505,3.505,0,0,1,2.214-.731,3.1,3.1,0,0,1,2.551,1.041l-1.105.386a1.944,1.944,0,0,0-1.45-.575c-1.136,0-1.923.628-1.923,1.465a1.285,1.285,0,0,0,.64,1.113,2.376,2.376,0,0,0,1.287.356,2.115,2.115,0,0,0,1.9-.92h-2.123v-.848h3.3v.254a2.025,2.025,0,0,1-.784,1.65" transform="translate(-537.211 -227.52)" fill="#fff"/><path d="M634.346,233.6l-1.079-1.548h-2.014V233.6H630.19V229.22h3.588a1.465,1.465,0,0,1,1.65,1.435,1.246,1.246,0,0,1-1,1.317l1.113,1.628Zm.03-2.979c0-.333-.265-.564-.719-.564h-2.4v1.151h2.407C634.115,231.207,634.376,230.984,634.376,230.621Z" transform="translate(-551.026 -227.744)" fill="#fff"/><path d="M654.943,232.788a3.792,3.792,0,0,1-4.444,0,2.012,2.012,0,0,1-.75-1.6,1.986,1.986,0,0,1,.757-1.59,3.76,3.76,0,0,1,4.444,0,2,2,0,0,1,.757,1.59,2.05,2.05,0,0,1-.765,1.6m-2.222-3.074c-1.143,0-1.881.606-1.881,1.469,0,.882.719,1.476,1.878,1.476s1.889-.59,1.889-1.476C654.606,230.32,653.872,229.714,652.721,229.714Z" transform="translate(-563.183 -227.526)" fill="#fff"/><path d="M677.205,230.645c0,.908-.579,1.4-1.692,1.4h-2.479v1.548H671.97V229.21h3.588a1.47,1.47,0,0,1,1.647,1.435m-1.056,0c0-.375-.253-.587-.719-.587h-2.4V231.2h2.407C675.884,231.2,676.149,230.985,676.149,230.641Z" transform="translate(-576.992 -227.738)" fill="#fff"/><path d="M691.46,233.6V229.22h4.75v.84h-3.683v.893h2.559v.84h-2.559v.961h3.85v.844Z" transform="translate(-589.105 -227.744)" fill="#fff"/><path d="M714.46,230.515a2.641,2.641,0,0,0-1.912-.791c-1.09,0-1.828.617-1.828,1.465,0,.867.749,1.476,1.911,1.476a2.367,2.367,0,0,0,1.84-.818l.9.485a3.281,3.281,0,0,1-2.691,1.181,3.747,3.747,0,0,1-2.059-.564,2.06,2.06,0,0,1-.961-1.76,2.008,2.008,0,0,1,.757-1.59,3.476,3.476,0,0,1,2.214-.719,3.359,3.359,0,0,1,2.793,1.295Z" transform="translate(-600.416 -227.532)" fill="#fff"/><path d="M733.5,233.718c-1.639,0-2.65-.678-2.65-1.6v-2.9h1.067v2.759c0,.537.575.9,1.586.9s1.586-.367,1.586-.9V229.21h1.064v2.9c0,.927-1.014,1.6-2.653,1.6" transform="translate(-613.585 -227.738)" fill="#fff"/><path d="M754.527,231.176l-.5-.943h-2.809l-.5.943H749.64l2.328-4.379h1.313l2.324,4.379Zm-1.911-3.585-.961,1.8h1.923Zm-.03-1.147H752.1l.466-1.124h.867Z" transform="translate(-625.262 -225.32)" fill="#fff"/><path d="M775.006,233.6l-1.079-1.548h-2.014V233.6H770.85V229.22h3.588a1.465,1.465,0,0,1,1.65,1.435,1.246,1.246,0,0,1-1,1.317L776.2,233.6Zm.03-2.979c0-.333-.265-.564-.719-.564h-2.4v1.151h2.407C774.779,231.207,775.036,230.984,775.036,230.621Z" transform="translate(-638.444 -227.744)" fill="#fff"/><rect width="1.064" height="4.379" transform="translate(140.098 1.476)" fill="#fff"/><path d="M804.291,233.589l-.5-.943h-2.8l-.5.943H799.4l2.328-4.379h1.314l2.324,4.379Zm-1.912-3.581-.961,1.8h1.923Z" transform="translate(-656.187 -227.738)" fill="#fff"/><path d="M822.444,229.775c-.916,0-1.385.174-1.385.458,0,.151.125.254.382.314a14.613,14.613,0,0,0,1.658.132c1.374.129,2.033.458,2.033,1.317,0,.95-.893,1.51-2.559,1.51a4.772,4.772,0,0,1-2.843-.821l.583-.712a4.305,4.305,0,0,0,2.313.678c.882,0,1.378-.254,1.378-.613,0-.386-.568-.386-1.5-.428-1.707-.072-2.547-.413-2.547-1.287,0-.859.859-1.4,2.445-1.4a4.656,4.656,0,0,1,2.578.64l-.606.7a4.069,4.069,0,0,0-1.931-.485" transform="translate(-668.822 -227.557)" fill="#fff"/></g><path d="M352.261,180.052l-10.769-18.218a1.077,1.077,0,0,1,.927-1.624h4.614a1.072,1.072,0,0,1,.927.53l7.222,12.234,7.226-12.234a1.072,1.072,0,0,1,.927-.53h4.614a1.077,1.077,0,0,1,.927,1.624l-10.769,18.218a1.072,1.072,0,0,1-.927.53h-3.993a1.082,1.082,0,0,1-.927-.53" transform="translate(-341.341 -159.65)" fill="#fff"/><path d="M428.923,180.01l-1.828-3.437h-10.86l-1.828,3.437a1.074,1.074,0,0,1-.95.572H409.32a1.076,1.076,0,0,1-.95-1.582l9.686-18.218a1.074,1.074,0,0,1,.95-.572h5.345a1.085,1.085,0,0,1,.954.572L434.968,179a1.077,1.077,0,0,1-.954,1.582h-4.137a1.076,1.076,0,0,1-.954-.572m-5.034-9.444-1.851-3.46a.457.457,0,0,0-.8,0l-1.851,3.46a.452.452,0,0,0,.4.666h3.7A.452.452,0,0,0,423.889,170.566Z" transform="translate(-382.918 -159.65)" fill="#fff"/><path d="M488.42,179.507V161.289a1.078,1.078,0,0,1,1.079-1.079h4.137a1.078,1.078,0,0,1,1.079,1.079v13.952h14.312V179.5a1.081,1.081,0,0,1-1.079,1.079H489.5a1.078,1.078,0,0,1-1.079-1.075" transform="translate(-432.748 -159.65)" fill="#fff"/><path d="M550.48,179.507V161.289a1.078,1.078,0,0,1,1.079-1.079H555.7a1.078,1.078,0,0,1,1.079,1.079v13.952h14.312V179.5a1.081,1.081,0,0,1-1.079,1.079H551.559a1.075,1.075,0,0,1-1.079-1.075" transform="translate(-471.317 -159.65)" fill="#fff"/><path d="M624.882,180.2a15.567,15.567,0,0,1-10-3.263,9.673,9.673,0,0,1,.026-14.925,16.839,16.839,0,0,1,19.986,0,9.658,9.658,0,0,1,0,14.933,15.728,15.728,0,0,1-10.016,3.255m.026-16.11c-4.251,0-7.1,2.154-7.1,5.36,0,3.32,2.714,5.386,7.078,5.386,4.4,0,7.131-2.063,7.131-5.386C632.017,166.194,629.223,164.094,624.908,164.094Z" transform="translate(-509.165 -158.73)" fill="#fff"/><path d="M706.149,181.129c-7.26,0-12.139-3.092-12.139-7.692V161.3a1.078,1.078,0,0,1,1.079-1.079h4.137A1.078,1.078,0,0,1,700.3,161.3v11.522c0,1.817,2.241,2.945,5.848,2.945,3.55,0,5.848-1.154,5.848-2.945V161.3a1.078,1.078,0,0,1,1.079-1.079h4.137A1.078,1.078,0,0,1,718.3,161.3v12.139c-.011,4.6-4.887,7.692-12.147,7.692" transform="translate(-560.518 -159.656)" fill="#fff"/><path d="M866.593,180.01l-1.828-3.437h-10.86l-1.828,3.437a1.074,1.074,0,0,1-.95.572H846.99a1.076,1.076,0,0,1-.95-1.582l9.686-18.218a1.074,1.074,0,0,1,.95-.572h5.345a1.085,1.085,0,0,1,.954.572L872.638,179a1.077,1.077,0,0,1-.954,1.582h-4.137a1.076,1.076,0,0,1-.954-.572m-4.675-8.778-2.207-4.126a.454.454,0,0,0-.8,0l-1.851,3.46a.452.452,0,0,0,.4.666Z" transform="translate(-654.922 -159.65)" fill="#fff"/><path d="M791.458,180.588a1.089,1.089,0,0,1-.886-.462l-4.266-6.136-.261-.36-2.279-3.267a1.077,1.077,0,0,1,.886-1.692h3.8c.98,0,2.146-.28,2.146-1.609,0-1.4-1.662-1.507-2.173-1.507h-8.861a.456.456,0,0,0-.454.454v13.5a1.081,1.081,0,0,1-1.079,1.079H773.9a1.078,1.078,0,0,1-1.079-1.079v-17.7a1.59,1.59,0,0,1,1.59-1.59h14.531c4.724,0,7.9,2.8,7.9,6.972a6.079,6.079,0,0,1-3.744,6.053l3.868,5.659a1.077,1.077,0,0,1-.89,1.684Z" transform="translate(-609.497 -159.656)" fill="#fff"/><path d="M542.3,230.76c-.064.03-.129.057-.193.083.064-.03.129-.053.193-.083" transform="translate(-433.257 -194.986)"/><path d="M541.327,231.17c-.057.019-.114.038-.167.053.053-.015.11-.034.167-.053" transform="translate(-432.307 -195.241)"/><path d="M540.316,231.45c-.045.008-.091.019-.136.027.045-.008.091-.015.136-.027" transform="translate(-431.327 -195.415)"/><path d="M537.1,231.25c-.03-.011-.064-.019-.095-.03.03.011.064.019.095.03" transform="translate(-428.157 -195.272)"/><path d="M543.388,229.79a4.978,4.978,0,0,1-.537.318,4.643,4.643,0,0,0,.537-.318" transform="translate(-433.997 -194.383)"/><path d="M544.672,229.14c-.1.076-.193.151-.292.22.095-.068.193-.144.292-.22" transform="translate(-435.527 -193.979)"/><path d="M545.27,228.624c.1-.079.2-.167.3-.254-.1.091-.2.174-.3.254" transform="translate(-436.417 -193.501)"/><path d="M539.18,231.6h0" transform="translate(-430.327 -195.508)"/><path d="M532.987,228.311c-.019-.019-.038-.038-.057-.061.019.019.038.038.057.061" transform="translate(-424.077 -193.426)"/><path d="M531.933,226.994c-.027-.038-.057-.076-.083-.114.026.038.053.076.083.114" transform="translate(-422.997 -192.575)"/><path d="M533.932,229.278c-.023-.023-.049-.045-.072-.068.026.023.049.049.072.068" transform="translate(-425.007 -194.023)"/><path d="M538.086,231.489c-.034,0-.068-.011-.106-.019a.879.879,0,0,0,.106.019" transform="translate(-429.127 -195.427)"/><path d="M536.012,230.783l-.042-.023a.4.4,0,0,0,.042.023" transform="translate(-427.117 -194.986)"/><path d="M535.012,230.159a.8.8,0,0,1-.072-.049.8.8,0,0,0,.072.049" transform="translate(-426.087 -194.582)"/></g><g transform="matrix(1, -0.017, 0.017, 1, -2959.809, 6734.521)"><g transform="translate(0 1.922)"><g clip-path="url(#a)"><rect width="66.237" height="91.628" transform="translate(-0.912 0)" fill="#fff"/></g></g><g transform="translate(21.413 0)"><g clip-path="url(#b)"><rect width="53.604" height="52.117" transform="translate(0.004 0.004)" fill="#fff"/></g></g><g transform="translate(48.516 3.765)"><g clip-path="url(#c)"><rect width="39.206" height="85.624" transform="translate(0.004 0)" fill="#fff"/></g></g><g transform="translate(48.516 3.757)"><g clip-path="url(#d)"><rect width="26.505" height="66.359" transform="translate(0.004 0.008)" fill="#9ac43c"/></g></g><g transform="translate(21.416 0.008)"><g clip-path="url(#e)"><rect width="42.349" height="6.24" transform="translate(0 -0.004)" fill="#9ac43c"/></g></g><g transform="translate(10.458 1.922)"><g clip-path="url(#f)"><rect width="54.871" height="87.466" fill="#9ac43c"/></g></g><g transform="translate(10.458 2.212)"><g clip-path="url(#g)"><rect width="47.425" height="83.954" fill="#7fcd4e"/></g></g><g transform="translate(62.339 5.061)"><g clip-path="url(#h)"><rect width="10.722" height="47.528" transform="translate(0.004 -0.004)" fill="#9ac43c"/></g></g></g></g></svg>