<svg xmlns="http://www.w3.org/2000/svg" xmlns:xlink="http://www.w3.org/1999/xlink" width="276.7" height="80" viewBox="0 0 276.7 80"><defs><clipPath id="a"><path d="M71.278,76.047A16.469,16.469,0,0,0,71.124,92.7l26.414,46.743a16.507,16.507,0,0,0,14.632,8.462,16.944,16.944,0,0,0,12.686-6.187c-1.972,2.173-4.087,2.669-5.955-.349L92.39,94.481h0L78.316,69.55A16.545,16.545,0,0,0,71.278,76.047Z" transform="translate(-68.94 -69.55)"/></clipPath><linearGradient id="b" x1="-0.505" y1="-0.808" x2="0.733" y2="0.803" gradientUnits="objectBoundingBox"><stop offset="0" stop-color="#0d5c2b"/><stop offset="0.729" stop-color="#859f24"/><stop offset="1" stop-color="#b1c110"/></linearGradient><clipPath id="c"><path d="M130.92,74.839a14.745,14.745,0,0,0,12.709,7.492l.238,0a19.674,19.674,0,0,1,11.1,3.372c8.126,5.733,9.056,15.807,4.806,23.411l4.959-8.41c6.235-10.574,5.119-24.828-6.173-32.979a38.015,38.015,0,0,0-14.479-3.046l-19-.173Z" transform="translate(-125.08 -64.51)"/></clipPath><linearGradient id="d" x1="-0.446" y1="0.261" x2="1.094" y2="0.65" gradientUnits="objectBoundingBox"><stop offset="0" stop-color="#b1c110"/><stop offset="0.206" stop-color="#adbe14"/><stop offset="0.378" stop-color="#a0b41b"/><stop offset="0.538" stop-color="#8ba422"/><stop offset="0.691" stop-color="#6d8f29"/><stop offset="0.839" stop-color="#49782c"/><stop offset="0.981" stop-color="#185f2b"/><stop offset="1" stop-color="#0d5c2b"/></linearGradient><clipPath id="e"><path d="M212.59,107.341l-4.959,8.406c-.075.134-.137.271-.215.4l-8.034,13.584a1.873,1.873,0,0,1-3.242-.029l8.433,14.916c1.867,3.018,3.983,2.522,5.955.349.18-.212.372-.408.542-.627.078-.1.157-.215.235-.323a18.8,18.8,0,0,0,1.107-1.645l10.568-17.885A34.849,34.849,0,0,0,206.411,74.38C217.709,82.525,218.826,96.772,212.59,107.341Z" transform="translate(-196.14 -74.38)"/></clipPath><linearGradient id="f" x1="0.95" y1="0.13" x2="-0.595" y2="1.4" gradientUnits="objectBoundingBox"><stop offset="0" stop-color="#b1c110"/><stop offset="0.58" stop-color="#63892a"/><stop offset="0.84" stop-color="#0d5c2b"/><stop offset="1" stop-color="#0d5c2b"/></linearGradient><clipPath id="g"><path d="M212.59,107.343l-4.959,8.41c-.075.134-.137.271-.215.4l-8.034,13.591a1.872,1.872,0,0,1-3.242-.029l.669,1.185a2.307,2.307,0,0,0,.937.258h0A2.336,2.336,0,0,0,199.806,130l8.034-13.591c.049-.082.091-.166.134-.251l5.044-8.563c5.645-9.572,5.72-23.3-4.427-32.121-.728-.366-1.423-.79-2.174-1.11C217.709,82.515,218.826,96.768,212.59,107.343Z" transform="translate(-196.14 -74.36)"/></clipPath><linearGradient id="h" x1="0.01" y1="0.498" x2="0.829" y2="0.501" gradientUnits="objectBoundingBox"><stop offset="0" stop-color="#b1c110"/><stop offset="0.149" stop-color="#abbc15"/><stop offset="0.332" stop-color="#98ae1e"/><stop offset="0.534" stop-color="#7a9827"/><stop offset="0.748" stop-color="#507d2b"/><stop offset="0.97" stop-color="#1a602b"/><stop offset="1" stop-color="#0d5c2b"/></linearGradient><clipPath id="i"><path d="M125.09,64.53l.277.49,18.713.17c7.643.069,11.315,1.531,14.9,3.294a14.147,14.147,0,0,1,2.21,1.384c.052-.18.085-.362.147-.539a14.716,14.716,0,0,0-2.262-1.365A34.272,34.272,0,0,0,144.087,64.7l-19-.166Z" transform="translate(-125.09 -64.53)"/></clipPath><linearGradient id="j" x1="0.914" y1="3.653" x2="0.439" y2="0.034" gradientUnits="objectBoundingBox"><stop offset="0" stop-color="#0d5c2b"/><stop offset="0.03" stop-color="#1a602b"/><stop offset="0.252" stop-color="#507d2b"/><stop offset="0.466" stop-color="#7a9827"/><stop offset="0.668" stop-color="#98ae1e"/><stop offset="0.851" stop-color="#abbc15"/><stop offset="1" stop-color="#b1c110"/></linearGradient><clipPath id="k"><path d="M96.36,69.8l40.592,71.826a4.261,4.261,0,0,0,3.059,2.343c.075.006.153.01.229.01a3.032,3.032,0,0,0,.96-.166,18.66,18.66,0,0,0,2.122-2.1c-1.972,2.173-4.087,2.669-5.955-.349L110.855,94.474,96.784,69.55c-.147.072-.281.17-.424.248" transform="translate(-96.36 -69.55)"/></clipPath><linearGradient id="l" x1="-0.007" y1="0.497" x2="1.007" y2="0.503" xlink:href="#h"/><clipPath id="m"><path d="M116.176,105.7l20.776,36.44-20.492-36.6L96.36,70.31Z" transform="translate(-96.36 -70.31)"/></clipPath><linearGradient id="n" x1="0.2" y1="0.199" x2="0.822" y2="0.823" gradientUnits="objectBoundingBox"><stop offset="0" stop-color="#b1c110"/><stop offset="0.34" stop-color="#dce099"/><stop offset="0.49" stop-color="#fff"/><stop offset="1" stop-color="#b1c110"/></linearGradient><clipPath id="o"><path d="M239.409,86.911a25.04,25.04,0,0,1,1.6,11.015,27.792,27.792,0,0,1-3.039,10.734l-5.586,9.8c1.946-3.222,3.95-6.4,5.778-9.7a28.094,28.094,0,0,0,3.173-10.809,25.334,25.334,0,0,0-1.72-11.119A23.564,23.564,0,0,0,233,77.78,24.983,24.983,0,0,1,239.409,86.911Z" transform="translate(-232.38 -77.78)"/></clipPath><linearGradient id="p" x1="0.258" y1="0.811" x2="0.795" y2="0.122" xlink:href="#n"/></defs><g transform="translate(-68.94 -64.51)"><g transform="translate(68.94 64.51)"><g transform="translate(0 1.645)"><g clip-path="url(#a)"><rect width="56.694" height="78.393" transform="translate(-0.78)" fill="url(#b)"/></g></g><g transform="translate(18.328)"><g clip-path="url(#c)"><rect width="45.881" height="44.608" transform="translate(0.003 0.003)" fill="url(#d)"/></g></g><g transform="translate(41.526 3.222)"><g clip-path="url(#e)"><rect width="33.557" height="73.254" transform="translate(0.003 0)" fill="url(#f)"/></g></g><g transform="translate(41.526 3.216)"><g clip-path="url(#g)"><rect width="22.686" height="56.798" transform="translate(0.003 0.007)" fill="url(#h)"/></g></g><g transform="translate(18.331 0.007)"><g clip-path="url(#i)"><rect width="36.247" height="5.341" transform="translate(0 -0.003)" fill="url(#j)"/></g></g><g transform="translate(8.951 1.645)"><g clip-path="url(#k)"><rect width="46.965" height="74.832" fill="url(#l)"/></g></g><g transform="translate(8.951 1.893)"><g clip-path="url(#m)"><rect width="40.592" height="71.825" fill="url(#n)"/></g></g><g transform="translate(53.357 4.332)"><g clip-path="url(#o)"><rect width="9.177" height="40.681" transform="translate(0.003 -0.003)" fill="url(#p)"/></g></g></g><g transform="translate(183.778 116.985)"><path d="M423.394,229.658c-.787,0-1.195.15-1.195.4,0,.131.108.219.326.271a12.671,12.671,0,0,0,1.43.114c1.185.111,1.753.4,1.753,1.136,0,.819-.771,1.3-2.207,1.3a4.109,4.109,0,0,1-2.452-.708l.5-.614a3.71,3.71,0,0,0,1.991.584c.761,0,1.192-.219,1.192-.529,0-.333-.49-.333-1.3-.369-1.472-.062-2.2-.356-2.2-1.11s.741-1.211,2.109-1.211a4.015,4.015,0,0,1,2.223.552l-.522.6a3.455,3.455,0,0,0-1.658-.418" transform="translate(-421.05 -227.745)" fill="#4d5e54"/><path d="M445.509,232.249a3.27,3.27,0,0,1-3.833,0,1.782,1.782,0,0,1,.007-2.752,3.233,3.233,0,0,1,3.826,0,1.723,1.723,0,0,1,.653,1.371,1.742,1.742,0,0,1-.653,1.381M443.6,229.6c-.986,0-1.622.522-1.622,1.267,0,.761.62,1.273,1.616,1.273s1.629-.509,1.629-1.273C445.219,230.12,444.588,229.6,443.6,229.6Z" transform="translate(-434.507 -227.711)" fill="#4d5e54"/><path d="M463.24,233V229.22h.921v3.049h2.905V233Z" transform="translate(-449.466 -227.947)" fill="#4d5e54"/><path d="M482.665,233.1c-1.414,0-2.285-.584-2.285-1.384v-2.5h.917v2.38c0,.464.5.777,1.368.777s1.368-.317,1.368-.777v-2.38h.921v2.5c0,.8-.875,1.384-2.288,1.384" transform="translate(-461.011 -227.94)" fill="#4d5e54"/><path d="M504.913,230.29a2.261,2.261,0,0,0-1.649-.682c-.94,0-1.577.532-1.577,1.263,0,.748.646,1.273,1.649,1.273a2.06,2.06,0,0,0,1.587-.705l.777.418a2.747,2.747,0,0,1-2.161,1.012l-.088.134c.261.072.385.209.385.437,0,.281-.238.49-.62.49a1.63,1.63,0,0,1-.575-.124l.147-.277a.862.862,0,0,0,.317.072c.147,0,.238-.085.238-.176a.094.094,0,0,0-.095-.1.164.164,0,0,0-.131.1l-.255-.114.251-.447c-1.5-.14-2.344-.914-2.344-2a1.732,1.732,0,0,1,.653-1.371,3,3,0,0,1,1.91-.62A2.9,2.9,0,0,1,505.742,230Z" transform="translate(-474.744 -227.718)" fill="#4d5e54"/><path d="M525.939,230.121a3.27,3.27,0,0,1-3.833,0,1.782,1.782,0,0,1,.006-2.752,3.238,3.238,0,0,1,3.829,0,1.727,1.727,0,0,1,.653,1.371,1.754,1.754,0,0,1-.656,1.381m-1.913-2.651c-.986,0-1.623.522-1.623,1.267,0,.761.62,1.273,1.616,1.273s1.629-.513,1.629-1.273C525.649,227.992,525.018,227.47,524.026,227.47Zm.349-1c-.284,0-.532-.193-.663-.193-.095,0-.173.095-.271.277l-.4-.313c.255-.3.437-.464.64-.464.255,0,.5.2.663.2.1,0,.163-.095.278-.268l.359.251C524.813,226.3,524.61,226.467,524.375,226.467Z" transform="translate(-488.68 -225.583)" fill="#4d5e54"/><path d="M543.67,233V229.22h4.1v.725h-3.18v.77h2.207v.725h-2.207v.829h3.323V233Z" transform="translate(-503.639 -227.947)" fill="#4d5e54"/><path d="M564.431,229.658c-.79,0-1.195.15-1.195.4,0,.131.108.219.33.271a12.608,12.608,0,0,0,1.43.114c1.185.111,1.753.4,1.753,1.136,0,.819-.77,1.3-2.207,1.3a4.115,4.115,0,0,1-2.452-.708l.5-.614a3.713,3.713,0,0,0,1.995.584c.761,0,1.188-.219,1.188-.529,0-.333-.49-.333-1.293-.369-1.472-.062-2.2-.356-2.2-1.11s.741-1.211,2.109-1.211a4.015,4.015,0,0,1,2.223.552l-.522.6a3.5,3.5,0,0,0-1.665-.418" transform="translate(-516.046 -227.745)" fill="#4d5e54"/><path d="M592.281,232.987l-.434-.813h-2.422l-.434.813h-.93l2.008-3.777H591.2l2,3.777Zm-1.649-3.088-.829,1.551h1.659Z" transform="translate(-533.537 -227.94)" fill="#4d5e54"/><path d="M612.508,232.242a3.159,3.159,0,0,1-1.978.62,2.983,2.983,0,0,1-1.916-.627,1.767,1.767,0,0,1,0-2.746,3.024,3.024,0,0,1,1.91-.63,2.672,2.672,0,0,1,2.2.9l-.953.333a1.677,1.677,0,0,0-1.25-.5c-.979,0-1.659.542-1.659,1.263a1.108,1.108,0,0,0,.552.96,2.049,2.049,0,0,0,1.11.307,1.824,1.824,0,0,0,1.639-.793h-1.831V230.6h2.85v.219a1.746,1.746,0,0,1-.676,1.423" transform="translate(-546.941 -227.704)" fill="#4d5e54"/><path d="M633.775,233l-.93-1.335h-1.737V233h-.917V229.22h3.095a1.264,1.264,0,0,1,1.423,1.237,1.075,1.075,0,0,1-.862,1.136l.96,1.4Zm.026-2.569c0-.287-.228-.486-.62-.486h-2.073v.992h2.076C633.575,230.934,633.8,230.741,633.8,230.428Z" transform="translate(-561.914 -227.947)" fill="#4d5e54"/><path d="M654.229,232.249a3.27,3.27,0,0,1-3.833,0,1.736,1.736,0,0,1-.646-1.381,1.713,1.713,0,0,1,.653-1.371,3.243,3.243,0,0,1,3.833,0,1.723,1.723,0,0,1,.653,1.371,1.768,1.768,0,0,1-.659,1.381m-1.916-2.651c-.986,0-1.622.522-1.622,1.267,0,.761.62,1.273,1.619,1.273s1.629-.509,1.629-1.273C653.939,230.12,653.305,229.6,652.313,229.6Z" transform="translate(-575.088 -227.711)" fill="#4d5e54"/><path d="M676.485,230.447c0,.784-.5,1.2-1.459,1.2h-2.138v1.335h-.917V229.21h3.095a1.268,1.268,0,0,1,1.42,1.237m-.911,0c0-.323-.219-.506-.62-.506h-2.073v.989h2.076C675.346,230.927,675.574,230.741,675.574,230.444Z" transform="translate(-590.054 -227.94)" fill="#4d5e54"/><path d="M691.46,233V229.22h4.1v.725h-3.176v.77h2.207v.725h-2.207v.829h3.32V233Z" transform="translate(-603.181 -227.947)" fill="#4d5e54"/><path d="M713.8,230.29a2.278,2.278,0,0,0-1.649-.682c-.94,0-1.577.532-1.577,1.263,0,.748.646,1.273,1.649,1.273a2.041,2.041,0,0,0,1.587-.705l.777.418a2.83,2.83,0,0,1-2.321,1.019,3.231,3.231,0,0,1-1.776-.486,1.777,1.777,0,0,1-.829-1.518,1.732,1.732,0,0,1,.653-1.371,3,3,0,0,1,1.91-.62A2.9,2.9,0,0,1,714.632,230Z" transform="translate(-615.439 -227.718)" fill="#4d5e54"/><path d="M733.135,233.1c-1.414,0-2.285-.584-2.285-1.384v-2.5h.921v2.38c0,.464.5.777,1.368.777s1.368-.317,1.368-.777v-2.38h.917v2.5c0,.8-.875,1.384-2.289,1.384" transform="translate(-629.712 -227.94)" fill="#4d5e54"/><path d="M753.855,230.37l-.431-.813H751l-.431.813h-.93l2.008-3.777h1.133l2,3.777Zm-1.649-3.092-.829,1.551h1.658Zm-.026-.989h-.421l.4-.97h.748Z" transform="translate(-642.367 -225.32)" fill="#4d5e54"/><path d="M774.435,233l-.93-1.335h-1.737V233h-.917V229.22h3.095a1.264,1.264,0,0,1,1.423,1.237,1.075,1.075,0,0,1-.862,1.136l.96,1.4Zm.026-2.569c0-.287-.229-.486-.62-.486h-2.073v.992h2.076C774.239,230.934,774.461,230.741,774.461,230.428Z" transform="translate(-656.653 -227.947)" fill="#4d5e54"/><rect width="0.917" height="3.777" transform="translate(120.831 1.273)" fill="#4d5e54"/><path d="M803.618,232.987l-.434-.813h-2.419l-.434.813h-.93l2.008-3.777h1.133l2,3.777Zm-1.649-3.088-.829,1.551H802.8Z" transform="translate(-675.883 -227.94)" fill="#4d5e54"/><path d="M822.071,229.658c-.79,0-1.195.15-1.195.4,0,.131.108.219.33.271a12.611,12.611,0,0,0,1.43.114c1.185.111,1.753.4,1.753,1.136,0,.819-.77,1.3-2.207,1.3a4.116,4.116,0,0,1-2.452-.708l.5-.614a3.713,3.713,0,0,0,1.995.584c.761,0,1.188-.219,1.188-.529,0-.333-.49-.333-1.293-.369-1.472-.062-2.2-.356-2.2-1.11s.741-1.211,2.109-1.211a4.015,4.015,0,0,1,2.223.552l-.522.6a3.508,3.508,0,0,0-1.665-.418" transform="translate(-689.576 -227.745)" fill="#4d5e54"/></g><g transform="translate(157.755 95.253)"><path d="M350.759,177.323l-9.288-15.713a.928.928,0,0,1,.8-1.4h3.98a.925.925,0,0,1,.8.457l6.229,10.551,6.232-10.551a.925.925,0,0,1,.8-.457h3.98a.929.929,0,0,1,.8,1.4L355.8,177.323a.925.925,0,0,1-.8.457h-3.444a.933.933,0,0,1-.8-.457" transform="translate(-341.341 -159.727)" fill="#4d5e54"/><path d="M426.079,177.287l-1.577-2.964h-9.366l-1.577,2.964a.927.927,0,0,1-.819.493h-3.568a.928.928,0,0,1-.819-1.365l8.354-15.713a.927.927,0,0,1,.819-.493h4.61a.935.935,0,0,1,.823.493l8.335,15.713a.929.929,0,0,1-.823,1.365H426.9a.928.928,0,0,1-.823-.493m-4.342-8.145-1.6-2.984a.394.394,0,0,0-.692,0l-1.6,2.984a.39.39,0,0,0,.346.575h3.193A.39.39,0,0,0,421.737,169.142Z" transform="translate(-386.401 -159.727)" fill="#4d5e54"/><path d="M488.42,176.853V161.14a.93.93,0,0,1,.93-.93h3.568a.93.93,0,0,1,.93.93v12.033h12.344v3.676a.932.932,0,0,1-.93.93H489.351a.929.929,0,0,1-.93-.927" transform="translate(-440.404 -159.727)" fill="#4d5e54"/><path d="M550.48,176.853V161.14a.93.93,0,0,1,.93-.93h3.568a.93.93,0,0,1,.93.93v12.033h12.344v3.676a.932.932,0,0,1-.93.93H551.41a.927.927,0,0,1-.93-.927" transform="translate(-482.204 -159.727)" fill="#4d5e54"/><path d="M623.025,177.25a13.426,13.426,0,0,1-8.622-2.814,8.343,8.343,0,0,1,.023-12.872,14.523,14.523,0,0,1,17.237,0,8.33,8.33,0,0,1,0,12.879,13.564,13.564,0,0,1-8.638,2.808m.023-13.894c-3.666,0-6.128,1.858-6.128,4.623,0,2.863,2.341,4.646,6.1,4.646,3.794,0,6.151-1.779,6.151-4.646C629.179,165.168,626.77,163.356,623.048,163.356Z" transform="translate(-523.222 -158.73)" fill="#4d5e54"/><path d="M704.48,178.254c-6.262,0-10.47-2.667-10.47-6.634V161.15a.93.93,0,0,1,.93-.93h3.568a.93.93,0,0,1,.93.93v9.938c0,1.567,1.933,2.54,5.044,2.54,3.062,0,5.044-1,5.044-2.54V161.15a.93.93,0,0,1,.93-.93h3.568a.93.93,0,0,1,.93.93v10.47c-.01,3.967-4.215,6.634-10.476,6.634" transform="translate(-578.876 -159.734)" fill="#4d5e54"/><path d="M863.749,177.287l-1.577-2.964h-9.366l-1.577,2.964a.927.927,0,0,1-.82.493h-3.568a.928.928,0,0,1-.819-1.365l8.354-15.713a.927.927,0,0,1,.82-.493h4.61a.935.935,0,0,1,.823.493l8.335,15.713a.929.929,0,0,1-.823,1.365h-3.568a.928.928,0,0,1-.823-.493m-4.032-7.571-1.9-3.558a.391.391,0,0,0-.689,0l-1.6,2.984a.39.39,0,0,0,.346.575Z" transform="translate(-681.187 -159.727)" fill="#4d5e54"/><path d="M788.9,177.787a.94.94,0,0,1-.764-.4l-3.679-5.292-.225-.31-1.965-2.817a.929.929,0,0,1,.764-1.459h3.281c.846,0,1.851-.242,1.851-1.387,0-1.2-1.433-1.3-1.874-1.3h-7.642a.393.393,0,0,0-.392.392V176.86a.932.932,0,0,1-.93.93H773.75a.93.93,0,0,1-.93-.93V161.591a1.371,1.371,0,0,1,1.371-1.371h12.533c4.074,0,6.813,2.416,6.813,6.013a5.243,5.243,0,0,1-3.229,5.22l3.336,4.881a.929.929,0,0,1-.767,1.453Z" transform="translate(-631.958 -159.734)" fill="#4d5e54"/></g><path d="M542.276,230.76c-.055.026-.111.049-.167.072.056-.026.111-.046.167-.072" transform="translate(-318.76 -111.998)"/><path d="M541.3,231.17c-.049.016-.1.033-.144.046.046-.013.095-.029.144-.046" transform="translate(-318.121 -112.274)"/><path d="M540.3,231.45c-.039.007-.078.016-.117.023.039-.007.078-.013.117-.023" transform="translate(-317.46 -112.463)"/><path d="M537.092,231.246c-.026-.01-.056-.016-.082-.026.026.01.055.016.082.026" transform="translate(-315.325 -112.308)"/><path d="M543.314,229.79a4.313,4.313,0,0,1-.464.274,4.014,4.014,0,0,0,.464-.274" transform="translate(-319.259 -111.344)"/><path d="M544.631,229.14c-.085.065-.166.131-.251.189.082-.059.166-.124.251-.189" transform="translate(-320.29 -110.906)"/><path d="M545.27,228.589c.088-.069.173-.144.258-.219-.085.078-.17.15-.258.219" transform="translate(-320.889 -110.388)"/><path d="M539.18,231.6h0" transform="translate(-316.787 -112.564)"/><path d="M532.979,228.3c-.016-.016-.033-.033-.049-.052.016.016.033.033.049.052" transform="translate(-312.576 -110.307)"/><path d="M531.922,226.978c-.023-.033-.049-.065-.072-.1.023.033.046.065.072.1" transform="translate(-311.849 -109.384)"/><path d="M533.922,229.269l-.062-.059c.023.02.042.042.062.059" transform="translate(-313.203 -110.954)"/><path d="M538.071,231.486c-.029,0-.059-.01-.091-.016a.771.771,0,0,0,.091.016" transform="translate(-315.978 -112.476)"/><path d="M536.006,230.78l-.036-.02a.338.338,0,0,0,.036.02" transform="translate(-314.624 -111.998)"/><path d="M535,230.152a.7.7,0,0,1-.062-.042.7.7,0,0,0,.062.042" transform="translate(-313.93 -111.56)"/></g></svg>