<svg xmlns="http://www.w3.org/2000/svg" xmlns:xlink="http://www.w3.org/1999/xlink" width="100.255" height="109.007" viewBox="0 0 100.255 109.007"><defs><clipPath id="a"><path d="M72.082,78.287a22.153,22.153,0,0,0-.206,22.392l35.5,62.855a22.185,22.185,0,0,0,19.667,11.378,22.77,22.77,0,0,0,17.052-8.32c-2.65,2.922-5.494,3.589-8-.47L100.46,103.075h0L81.543,69.55A22.242,22.242,0,0,0,72.082,78.287Z" transform="translate(-68.94 -69.55)" fill="#fff"/></clipPath><clipPath id="b"><path d="M132.93,78.394a19.819,19.819,0,0,0,17.083,10.071l.32,0A26.444,26.444,0,0,1,165.248,93c10.922,7.705,12.173,21.247,6.459,31.467l6.666-11.3c8.381-14.213,6.881-33.371-8.3-44.328a51.1,51.1,0,0,0-19.461-4.094L125.08,64.51Z" transform="translate(-125.08 -64.51)" fill="#fff"/></clipPath><clipPath id="c"><path d="M218.252,118.7l-6.665,11.3c-.1.18-.184.364-.29.54l-10.8,18.268a2.517,2.517,0,0,1-4.357-.04l11.334,20.058c2.51,4.059,5.353,3.392,8,.47.241-.285.5-.549.728-.843.105-.136.211-.29.316-.434a25.293,25.293,0,0,0,1.488-2.212l14.2-24.051A46.87,46.87,0,0,0,209.945,74.38C225.132,85.333,226.633,104.491,218.252,118.7Z" transform="translate(-196.14 -74.38)" fill="#fff"/></clipPath><clipPath id="d"><path d="M218.252,118.693,211.586,130c-.1.18-.184.364-.29.54L200.5,148.8a2.517,2.517,0,0,1-4.357-.04l.9,1.593a3.1,3.1,0,0,0,1.259.347h0a3.139,3.139,0,0,0,2.765-1.562l10.8-18.268c.066-.11.123-.224.18-.338l6.78-11.51c7.587-12.866,7.688-31.322-5.95-43.174-.979-.491-1.913-1.062-2.922-1.492C225.132,85.321,226.633,104.48,218.252,118.693Z" transform="translate(-196.14 -74.36)" fill="#9ac43c"/></clipPath><clipPath id="e"><path d="M125.09,64.53l.373.658,25.152.228c10.273.092,15.209,2.058,20.032,4.428a19.02,19.02,0,0,1,2.971,1.861c.07-.241.114-.487.2-.724a19.776,19.776,0,0,0-3.041-1.834,46.066,46.066,0,0,0-20.15-4.392L125.09,64.53Z" transform="translate(-125.09 -64.53)" fill="#9ac43c"/></clipPath><clipPath id="f"><path d="M96.36,69.884l54.561,96.586c1.207,1.948,2.589,3.01,4.112,3.151.1.009.206.013.307.013a4.073,4.073,0,0,0,1.29-.224,25.087,25.087,0,0,0,2.852-2.822c-2.65,2.922-5.494,3.589-8-.47l-35.636-63.052L96.93,69.55c-.2.1-.377.228-.57.333" transform="translate(-96.36 -69.55)" fill="#9ac43c"/></clipPath><clipPath id="g"><path d="M123,117.894l27.926,49-27.544-49.217L96.36,70.31Z" transform="translate(-96.36 -70.31)" fill="#7fcd4e"/></clipPath><clipPath id="h"><path d="M241.828,90.053a33.657,33.657,0,0,1,2.146,14.805,37.356,37.356,0,0,1-4.085,14.428l-7.508,13.177c2.615-4.331,5.31-8.605,7.767-13.041a37.761,37.761,0,0,0,4.265-14.529A34.052,34.052,0,0,0,242.1,89.948a31.673,31.673,0,0,0-8.89-12.168A33.581,33.581,0,0,1,241.828,90.053Z" transform="translate(-232.38 -77.78)" fill="#9ac43c"/></clipPath></defs><g transform="matrix(1, -0.017, 0.017, 1, -0.039, 1.449)"><g transform="translate(0 2.212)"><g clip-path="url(#a)"><rect width="76.203" height="105.415" transform="translate(-1.049)" fill="#fff"/></g></g><g transform="translate(24.635)"><g clip-path="url(#b)"><rect width="61.67" height="59.959" transform="translate(0.004 0.004)" fill="#fff"/></g></g><g transform="translate(55.816 4.331)"><g clip-path="url(#c)"><rect width="45.105" height="98.508" transform="translate(0.004 0)" fill="#fff"/></g></g><g transform="translate(55.816 4.322)"><g clip-path="url(#d)"><rect width="30.493" height="76.344" transform="translate(0.004 0.009)" fill="#9ac43c"/></g></g><g transform="translate(24.639 0.009)"><g clip-path="url(#e)"><rect width="48.721" height="7.179" transform="translate(0 -0.004)" fill="#9ac43c"/></g></g><g transform="translate(12.032 2.212)"><g clip-path="url(#f)"><rect width="63.127" height="100.628" fill="#9ac43c"/></g></g><g transform="translate(12.032 2.545)"><g clip-path="url(#g)"><rect width="54.561" height="96.586" fill="#7fcd4e"/></g></g><g transform="translate(71.719 5.823)"><g clip-path="url(#h)"><rect width="12.335" height="54.68" transform="translate(0.004 -0.004)" fill="#9ac43c"/></g></g></g></svg>