<svg xmlns="http://www.w3.org/2000/svg" width="24" height="24" viewBox="0 0 24 24"><g transform="translate(-162.28 -55.61)"><g transform="translate(162.28 55.61)"><g transform="translate(0)"><path d="M182.783,59.1a11.927,11.927,0,0,0-18.808,14.35l-1.7,6.163,6.335-1.654a11.985,11.985,0,0,0,5.71,1.448h.005a11.939,11.939,0,0,0,11.95-11.893A11.792,11.792,0,0,0,182.783,59.1ZM174.33,77.4h0a9.954,9.954,0,0,1-5.055-1.378l-.363-.214-3.759.982,1-3.648-.236-.374A9.941,9.941,0,1,1,174.33,77.4Zm5.448-7.4c-.3-.149-1.767-.868-2.04-.967s-.473-.149-.672.149-.771.967-.946,1.165-.348.223-.647.074a8.164,8.164,0,0,1-2.4-1.475,8.969,8.969,0,0,1-1.661-2.058c-.174-.3-.019-.458.131-.606.134-.133.3-.347.448-.521a2.02,2.02,0,0,0,.3-.5.545.545,0,0,0-.025-.52c-.075-.149-.672-1.611-.921-2.206-.242-.579-.489-.5-.672-.51s-.373-.01-.572-.01a1.1,1.1,0,0,0-.8.372,3.327,3.327,0,0,0-1.045,2.479,5.765,5.765,0,0,0,1.219,3.074,13.286,13.286,0,0,0,5.1,4.487,17.223,17.223,0,0,0,1.7.626,4.11,4.11,0,0,0,1.881.118,3.075,3.075,0,0,0,2.015-1.413,2.471,2.471,0,0,0,.174-1.413C180.276,70.215,180.077,70.141,179.778,69.992Z" transform="translate(-162.28 -55.61)" fill="#fff" fill-rule="evenodd"/></g></g></g></svg>